<svg width="118" height="117" viewBox="0 0 118 117" fill="none" xmlns="http://www.w3.org/2000/svg">
<path d="M18.1529 81.6546C16.8067 78.2794 15.6151 75.1469 14.269 72.1027C14.0262 71.5291 13.1656 70.8894 12.5477 70.8453C10.2747 70.6908 7.97972 70.8232 5.70676 70.7791C1.97735 70.7129 0.101606 68.8378 0.0795389 65.1097C0.0574714 60.6977 0.0574714 56.2857 0.0795389 51.8517C0.101606 48.278 1.97735 46.4029 5.59642 46.3147C7.86938 46.2485 10.1644 46.3809 12.4374 46.2485C13.0773 46.2044 13.9821 45.6529 14.2248 45.0793C15.593 41.9689 16.8067 38.7702 18.2411 35.1083C16.5199 33.4758 14.4676 31.6669 12.5477 29.7257C9.87753 27.0564 9.89959 24.5195 12.5698 21.7841C15.6592 18.6296 18.7928 15.4971 21.9485 12.4307C24.5745 9.87179 27.1123 9.89385 29.7162 12.4969C31.6582 14.4161 33.4898 16.4456 35.1669 18.2104C38.8081 16.7765 42.0741 15.5412 45.2739 14.1514C45.7814 13.9308 46.2448 13.0484 46.2669 12.4528C46.3772 10.0924 46.2669 7.73198 46.3331 5.37158C46.4434 1.90818 48.3633 0.0551497 51.8059 0.0330898C56.3076 -0.0110299 60.7873 -0.0110299 65.2891 0.0330898C68.7537 0.0551497 70.6515 1.90818 70.7619 5.37158C70.8281 7.73198 70.7177 10.0924 70.8281 12.4528C70.8501 13.0484 71.3356 13.9308 71.8211 14.1293C75.0209 15.5191 78.2869 16.7324 81.906 18.1663C83.6052 16.4015 85.4368 14.372 87.3787 12.4528C89.9827 9.87179 92.5425 9.84973 95.1465 12.4087C98.3684 15.5412 101.546 18.7178 104.68 21.9385C107.151 24.4754 107.151 27.0344 104.702 29.5492C102.782 31.5125 100.796 33.3876 98.92 35.1965C100.31 38.7923 101.59 42.1674 103.003 45.4985C103.179 45.9176 104.084 46.2044 104.68 46.2264C106.953 46.3147 109.248 46.2264 111.521 46.2706C115.14 46.3588 116.993 48.2339 117.038 51.8076C117.082 56.2196 117.06 60.6315 117.038 65.0656C117.015 68.7716 115.14 70.6467 111.41 70.7129C109.137 70.757 106.842 70.6247 104.569 70.7791C103.951 70.8232 103.157 71.4629 102.87 72.0365C102.142 73.5366 101.723 75.169 101.061 76.7132C100.421 78.2574 99.6483 79.7354 98.6332 81.8311C100.487 83.5076 102.539 85.2945 104.481 87.1916C107.262 89.9491 107.24 92.4639 104.459 95.2876C101.414 98.376 98.3463 101.442 95.2568 104.487C92.5425 107.134 90.0489 107.09 87.3125 104.442C85.4589 102.634 83.87 99.7437 81.7294 99.2804C79.6772 98.8392 77.0953 100.913 74.734 101.817C70.806 103.317 70.806 103.295 70.806 107.619C70.806 109.075 70.8722 110.509 70.7839 111.965C70.5853 115.053 68.7096 116.906 65.6643 116.95C60.9418 117.017 56.2194 117.017 51.4969 116.95C48.4295 116.906 46.5317 115.053 46.3772 111.965C46.2669 109.604 46.289 107.244 46.3552 104.884C46.3993 103.626 46.0242 103.031 44.7663 102.589C42.1182 101.663 39.5363 100.56 36.9985 99.3466C35.9172 98.8172 35.2773 98.8613 34.4828 99.7437C32.894 101.486 31.1948 103.141 29.4956 104.751C27.1123 107.001 24.5745 107.068 22.2133 104.795C18.859 101.575 15.593 98.2877 12.3491 94.9567C9.92166 92.4639 10.0099 89.905 12.4815 87.346C14.3352 85.4268 16.233 83.5517 18.0867 81.6546C18.1529 81.6767 18.1749 81.6105 18.1529 81.6546ZM5.13301 51.2561C5.13301 56.2637 5.13301 60.9624 5.13301 65.8597C8.44314 65.8597 11.6209 65.9259 14.7986 65.8377C16.9171 65.7715 17.8218 66.7201 18.528 68.6834C19.83 72.3894 21.3306 76.0514 23.0518 79.581C24.0008 81.5222 24.067 82.912 22.4119 84.4121C20.0507 86.5739 17.8218 88.8461 15.6592 90.9418C19.2121 94.5155 22.5884 97.8906 26.1192 101.42C28.3039 99.2142 30.621 96.898 32.8498 94.5376C34.218 93.0816 35.52 93.0595 37.3075 93.9419C40.7059 95.5964 44.1926 97.1186 47.7675 98.376C51.0114 99.5451 51.2542 99.5893 51.2542 103.207C51.2542 106.141 51.2542 109.075 51.2542 111.943C56.3076 111.943 61.008 111.943 65.8629 111.943C65.8629 108.612 65.9291 105.435 65.8408 102.236C65.7967 100.251 66.6573 99.3025 68.533 98.6186C72.3728 97.2289 76.1684 95.6626 79.8537 93.8978C81.6632 93.0375 82.9652 93.1037 84.3113 94.5596C86.5181 96.9421 88.791 99.2804 90.8654 101.442C94.5286 97.8024 97.9049 94.4273 101.458 90.8977C99.2952 88.802 97.0443 86.5298 94.7052 84.3459C93.1825 82.9341 93.0942 81.6105 94.0211 79.7133C95.7644 76.0955 97.3312 72.3894 98.6552 68.5951C99.3614 66.6098 100.31 65.7274 102.407 65.7935C105.584 65.8818 108.762 65.8156 111.962 65.8156C111.962 60.8301 111.962 56.0872 111.962 51.212C108.674 51.212 105.562 51.1237 102.451 51.234C100.222 51.3223 99.2952 50.3296 98.589 48.256C97.3091 44.5278 95.7644 40.888 94.0431 37.3584C93.1384 35.4833 93.0942 34.1376 94.661 32.7258C97.0664 30.5419 99.4055 28.2918 101.48 26.3284C97.7505 22.6003 94.3741 19.2252 90.8875 15.7177C88.8131 17.8354 86.5402 20.0855 84.3775 22.4239C82.9432 23.968 81.597 23.946 79.7213 23.0415C76.1905 21.3209 72.5493 19.7546 68.8199 18.4972C66.5911 17.7472 65.7525 16.6442 65.8408 14.3941C65.9511 11.3057 65.8629 8.19524 65.8629 5.12892C60.8315 5.12892 56.087 5.12892 51.2542 5.12892C51.2542 8.4379 51.188 11.5483 51.2762 14.6588C51.3424 16.7545 50.4597 17.7251 48.4737 18.431C44.7001 19.7546 40.9707 21.2988 37.3516 23.0415C35.4538 23.968 34.1077 23.9019 32.7174 22.3577C30.5327 19.9531 28.2819 17.6369 26.4282 15.6735C22.6767 19.4237 19.3224 22.7989 15.8578 26.2623C17.9101 28.2918 20.161 30.5639 22.5002 32.7479C23.9566 34.1156 24.0228 35.3951 23.1622 37.204C21.4188 40.888 19.83 44.6823 18.4397 48.5207C17.7556 50.3958 16.8288 51.2561 14.8207 51.212C11.6871 51.1899 8.48727 51.2561 5.13301 51.2561Z" fill="#FFDF63"/>
<path d="M92.7189 58.5138C92.763 77.2206 77.2275 92.7507 58.5363 92.6845C39.8009 92.6183 24.6185 77.4853 24.4199 58.6682C24.2213 40.0276 39.6244 24.5195 58.4922 24.3872C77.1834 24.2769 92.6748 39.7188 92.7189 58.5138ZM46.355 84.8312C46.355 76.4705 46.3109 68.3304 46.3991 60.1903C46.3991 58.955 46.6639 57.5873 47.1936 56.4843C49.9961 50.6605 52.8649 44.8808 55.8882 39.1452C56.4178 38.1525 57.6757 36.9172 58.6025 36.9172C59.5293 36.9172 60.7651 38.1525 61.2947 39.1673C64.2076 44.6823 66.9882 50.2634 69.6804 55.8887C70.3424 57.2784 70.7617 58.9109 70.7838 60.433C70.8941 67.7348 70.8279 75.0587 70.8279 82.3605C70.8279 83.1547 70.8279 83.9268 70.8279 84.8312C80.3611 81.081 90.1811 68.7054 87.3344 53.0429C84.8408 39.4541 72.3947 29.2183 58.3377 29.3286C44.3689 29.4389 32.0552 39.9173 29.8043 53.3077C27.1342 68.904 37.0204 81.2575 46.355 84.8312ZM55.7558 87.6549C55.9765 87.324 56.0647 87.2578 56.0647 87.1916C56.1089 79.5148 56.153 71.8379 56.153 64.1611C56.153 63.7199 55.8882 63.1022 55.5351 62.8375C54.2331 61.8889 52.8208 61.0727 51.4085 60.1683C51.4085 69.1025 51.4085 77.9706 51.4085 86.949C52.9091 87.1916 54.3214 87.4122 55.7558 87.6549ZM65.7744 59.9697C64.649 60.808 63.8104 61.7566 62.7512 62.1978C61.1623 62.8375 60.9416 63.8743 60.9637 65.3965C61.0299 71.1762 60.9858 76.9558 60.9858 82.7355C60.9858 84.3018 60.9858 85.8901 60.9858 87.7431C62.8395 87.3901 64.3401 87.1254 65.7744 86.8607C65.7744 77.772 65.7744 68.9922 65.7744 59.9697ZM63.7222 54.8298C63.016 53.418 62.2878 52.1606 61.7802 50.837C61.1844 49.2486 60.1914 48.7633 58.5142 48.7854C56.9033 48.8075 55.9985 49.2707 55.4248 50.7708C54.8731 52.1606 54.1228 53.4841 53.4828 54.7857C57.9625 59.7933 58.8673 59.7933 63.7222 54.8298Z" fill="#FFDF63"/>
</svg>
