<svg width="118" height="118" viewBox="0 0 118 118" fill="none" xmlns="http://www.w3.org/2000/svg">
<path d="M117.096 31.8143C116.616 31.1828 115.831 30.7908 114.762 30.6602C114.435 30.6166 114.13 30.5731 113.803 30.5513C112.079 30.3335 110.291 30.1158 108.589 29.7456C107.935 29.5931 107.193 29.0488 107.106 28.7439C107.018 28.4608 107.411 27.5898 107.869 27.1978C109.047 26.1962 110.334 25.238 111.578 24.3235C112.057 23.9751 112.537 23.6266 113.017 23.2565C113.824 22.6467 114.282 21.9717 114.391 21.2313C114.501 20.5127 114.261 19.7942 113.693 19.0538L112.428 17.3771C110.749 15.156 109.025 12.8477 107.324 10.5831C106.713 9.7774 106.015 9.32011 105.273 9.21123C104.51 9.10235 103.725 9.38544 102.918 9.99515L102.241 10.5178C100.845 11.6065 99.3837 12.7389 97.8786 13.7188C97.3115 14.089 96.4607 14.2632 96.2208 14.1761C95.8281 13.8712 95.4791 12.9566 95.5227 12.3034C95.61 10.3871 95.959 8.44909 96.308 6.59816C96.5262 5.35696 96.3953 4.42061 95.8718 3.70202C95.3482 3.0052 94.4975 2.59146 93.2541 2.43903C90.6147 2.13418 87.9098 1.72044 85.2922 1.35026L83.8961 1.15428C81.2567 0.784092 80.166 1.56801 79.7733 4.1593C79.6861 4.79079 79.5988 5.44406 79.5116 6.07555C79.3371 7.42564 79.1626 8.7975 78.8572 10.104C78.7045 10.7355 78.1591 11.4541 77.8537 11.5412C77.592 11.6065 76.8503 11.2364 76.2177 10.6702C75.716 10.1911 75.2797 9.60319 74.8435 8.94993C74.6471 8.66684 74.4508 8.38376 74.2327 8.10068C72.4658 5.72714 71.5714 4.52949 70.3062 4.35528C69.0192 4.18108 67.7322 5.20453 65.5945 6.88125C63.7622 8.31843 62.1262 8.86282 59.9012 8.75394C53.7497 8.44909 47.7946 9.84272 42.1885 12.9131C36.2552 16.1359 31.5435 20.3821 28.1624 25.5429C24.934 30.4642 22.8399 36.3653 21.9674 43.0722C20.8549 44.357 20.1132 45.5111 19.6551 46.687C19.2843 47.7104 19.0661 48.7774 18.848 49.888C18.8044 50.0839 18.7608 50.3017 18.7171 50.4977C18.499 50.3453 18.2809 50.1928 18.0627 50.0622C16.9939 49.3436 15.9686 48.6685 15.0088 47.9499C13.3074 46.687 11.8022 46.7958 10.3843 48.2983C8.74832 50.0186 7.24319 51.5429 5.78168 52.9148C4.32017 54.2866 4.2111 55.8545 5.43266 57.553C6.23976 58.6635 7.02505 59.8176 7.85397 61.0588C7.8976 61.1242 7.94122 61.1677 7.96304 61.233C7.63583 61.3201 7.30863 61.3855 7.00324 61.4726C5.86893 61.7556 4.80007 62.0169 3.7312 62.1694C1.54984 62.5178 0.524606 63.7154 0.633674 65.8712C0.720928 67.7875 0.720928 69.7255 0.633674 71.6635C0.524606 73.6669 1.50622 74.9081 3.53488 75.3C4.71281 75.5178 5.89075 75.7791 7.13412 76.0404C7.4177 76.1057 7.70127 76.1711 7.98485 76.2146C7.85397 76.4324 7.70127 76.6283 7.57039 76.8461C6.89417 77.8478 6.26158 78.8059 5.60717 79.6987C4.2111 81.5714 4.34198 83.2263 5.99981 84.7071C7.48314 86.0572 8.92283 87.4943 10.2753 88.9751C11.8022 90.6518 13.4382 90.7824 15.2924 89.3888C16.1649 88.7355 17.0811 88.1476 18.0409 87.5161C18.3027 87.3419 18.5426 87.1895 18.8044 87.0153C19.1534 88.6702 19.4588 90.1727 19.7642 91.6535C20.1568 93.5044 21.2693 94.419 23.0798 94.3754C25.1958 94.3101 27.2462 94.3101 29.3622 94.3754C31.3036 94.419 32.4597 93.4826 32.7869 91.5446C33.005 90.3252 33.2886 89.1057 33.594 87.8428C33.6594 87.5814 33.7249 87.3201 33.7903 87.0588C34.1175 87.2548 34.4229 87.429 34.6847 87.6032C39.1346 90.6082 39.68 90.7607 43.4101 87.9516C43.4101 88.0823 43.4101 88.2129 43.3883 88.3436C43.3447 89.3888 43.301 90.4558 43.4755 91.5228C43.5192 91.7841 43.5628 92.0454 43.6064 92.3285C43.8464 93.9399 44.1299 95.7691 45.2424 96.6619C47.2711 98.295 47.2275 100.211 47.2057 102.432C47.2057 102.759 47.2057 103.107 47.2057 103.434C47.2057 104 47.2057 104.545 47.1839 105.111C47.162 106.417 47.162 107.767 47.2275 109.096C47.4456 113.777 50.8485 117.153 55.5166 117.327C56.8036 117.37 58.0906 117.392 59.3776 117.392C60.6646 117.392 61.9516 117.37 63.2386 117.327C68.0158 117.174 71.4405 113.69 71.5278 108.878C71.5496 107.463 71.5496 106.004 71.5496 104.61C71.5496 103.042 71.5278 101.452 71.5714 99.8629C71.5932 99.2749 71.8114 98.6216 72.0513 98.4474C74.429 96.5747 75.4979 94.0488 75.4106 90.5429C75.3888 89.6501 75.3888 88.7356 75.4106 87.8428C75.4106 86.95 75.4324 86.0354 75.3888 85.1208C75.3016 81.4843 76.7413 78.7406 79.7733 76.7372C80.7113 76.1057 81.5839 75.4307 82.4782 74.7121C83.0017 74.2984 83.5253 73.8846 84.0706 73.4709L84.6596 73.0354L84.1797 72.5128C83.3071 71.5764 82.6309 70.8143 81.9765 70.0957L81.2567 69.29L80.7768 69.6384C79.9478 70.2263 79.1844 70.8143 78.4209 71.3804C77.7665 71.8595 77.1557 72.3168 76.5449 72.7741C72.3349 75.6702 70.219 79.7858 70.2408 85.0119C70.2408 85.6434 70.2408 86.2531 70.2408 86.8846C70.2408 88.4089 70.2626 89.9768 70.219 91.5228C70.1754 93.0471 69.5864 94.8763 66.9688 94.898C61.9516 94.9634 56.8691 94.9634 51.852 94.898C49.7797 94.8545 48.6235 93.7004 48.5145 91.5446C48.449 89.9985 48.4054 88.1912 48.5145 86.4273C48.9289 80.352 46.464 75.5613 41.0106 71.8159C27.9661 62.888 23.5597 46.5563 30.3001 32.0756C35.2954 21.362 47.0966 13.6534 57.8725 14.0454C58.1997 14.4809 58.5269 14.9164 58.8541 15.3519C60.0757 16.9416 61.2318 18.4658 62.257 20.0555C62.606 20.5998 62.7806 21.2967 62.9769 22.0153C63.0205 22.1459 63.0423 22.2766 63.086 22.4072C62.9333 22.4508 62.8024 22.4943 62.6497 22.5379C61.8644 22.7774 61.1227 22.9952 60.4247 22.9952C59.3776 22.9952 58.3524 22.7992 57.2617 22.6032C56.8036 22.5161 56.3237 22.429 55.8438 22.3637C52.9208 21.9064 52.0047 22.5596 51.5684 25.3687C51.3284 26.8494 51.1321 28.3519 50.9358 29.8109C50.6958 31.4876 50.4559 33.2514 50.1941 34.9282C49.9978 36.0823 50.1505 36.9533 50.6522 37.6066C51.1539 38.2816 52.0047 38.6736 53.2698 38.826L53.7716 38.8913C55.4294 39.0873 57.1308 39.2833 58.745 39.697C59.6612 39.9148 60.5119 40.5027 60.5774 40.764C60.6428 41.0689 60.1411 41.9617 59.3994 42.6149C58.0688 43.8126 56.5201 44.8796 55.1458 45.8377C54.0769 46.5563 53.488 47.3402 53.3571 48.1895C53.2262 49.0387 53.5316 49.9097 54.2951 50.8896C56.4982 53.6769 58.5487 56.486 60.0975 58.62C60.7955 59.5781 61.5372 60.1007 62.3661 60.2096C63.195 60.3185 64.0676 60.0136 65.0274 59.2515L65.3327 59.0119C66.7943 57.8578 68.2994 56.6602 69.87 55.6803C70.4371 55.3319 71.3315 55.223 71.5714 55.3754C71.8332 55.5496 72.1604 56.4206 72.1168 57.0739C72.0077 58.9466 71.7678 60.8628 71.3751 62.8009C71.1133 64.0856 71.2442 65.0437 71.7459 65.7623C72.2476 66.4592 73.0766 66.8511 74.2981 67.0035C76.3704 67.2649 78.4863 67.5915 80.515 67.8963C81.7584 68.0923 83.0672 68.2883 84.3324 68.4625C86.252 68.7238 87.4735 67.831 87.7789 65.9365C87.888 65.2833 87.9752 64.63 88.0407 63.9985C88.2152 62.7355 88.3679 61.429 88.6733 60.1878C88.8042 59.5999 89.1532 59.0337 89.5458 58.4458C89.6113 58.3369 89.6767 58.2498 89.7421 58.1409C89.873 58.2062 90.0039 58.2716 90.1348 58.3369C90.811 58.6635 91.4436 58.9901 91.8581 59.4474C92.7088 60.362 93.4286 61.3637 94.2139 62.4525C94.5411 62.9097 94.8901 63.3888 95.2392 63.8679C95.8499 64.6736 96.548 65.1308 97.2896 65.2397C98.0313 65.3486 98.8384 65.0873 99.6455 64.4776C102.416 62.3871 105.23 60.2749 107.956 58.2498C108.785 57.6183 109.265 56.9215 109.353 56.1811C109.462 55.4407 109.2 54.6568 108.567 53.8729L108.196 53.4156C107.018 51.8913 105.775 50.3017 104.706 48.6685C104.401 48.2112 104.27 47.3838 104.357 47.1878C104.619 46.8176 105.47 46.4257 105.993 46.4474C107.76 46.5128 109.658 46.7741 111.927 47.2096C113.17 47.4491 114.108 47.3184 114.828 46.8176C115.526 46.3168 115.962 45.4675 116.137 44.2263C116.573 40.96 117.053 37.6501 117.533 34.4491V34.4055C117.751 33.295 117.576 32.4457 117.096 31.8143ZM100.06 44.1828C97.7259 48.0588 99.9073 50.8679 101.827 53.3503C102.329 53.9818 102.83 54.635 103.267 55.3101C102.11 56.1593 100.976 57.0086 99.82 57.9014L98.2494 59.0772C97.5514 58.1627 96.8752 57.2917 96.2208 56.4206L95.4137 55.3536C93.5813 52.9365 91.1382 52.0655 88.3461 52.8494C85.7721 53.568 84.1797 55.4407 83.7434 58.228C83.5907 59.1644 83.438 60.1007 83.2853 61.0588C83.1981 61.6468 83.089 62.2565 82.9799 62.888C81.8674 62.7355 80.7549 62.5613 79.6643 62.4089C78.7045 62.2783 77.7665 62.1476 76.7849 61.9952L76.8285 61.625C77.003 60.2967 77.1775 59.1426 77.352 57.9449C77.8319 54.5479 76.7849 52.1091 74.2545 50.6937C71.7459 49.2782 69.1719 49.5613 66.6197 51.5429C65.769 52.1962 64.8965 52.8277 63.9803 53.5027C63.7404 53.6769 63.5004 53.8511 63.2605 54.0253C62.6933 53.2849 62.148 52.5446 61.6026 51.826C60.9046 50.9114 60.2066 49.9751 59.4867 49.0169C59.9012 48.6903 60.3156 48.3855 60.7083 48.0806C61.5154 47.4709 62.3007 46.8612 63.086 46.2514C65.4636 44.4223 66.3798 42.1576 65.769 39.5228C65.1146 36.7138 63.2605 35.037 60.2066 34.5362C59.2031 34.362 58.1779 34.2096 57.0872 34.0354C56.6291 33.97 56.1274 33.9047 55.6257 33.8176C55.7348 33.0119 55.822 32.228 55.9311 31.4441C56.0838 30.1811 56.2583 28.9181 56.4328 27.6116L56.6946 27.6551C58.047 27.8293 59.334 27.9818 60.5774 28.1995C63.7185 28.7439 66.1835 27.7422 67.7104 25.2816C69.2374 22.821 69.0192 20.1861 67.056 17.6384C66.2925 16.6585 65.5509 15.6568 64.7002 14.5027L64.4384 14.1543C66.0308 12.9784 67.6014 11.8025 69.4773 10.3871C69.7391 10.7137 69.979 11.0404 70.219 11.367C70.8734 12.238 71.506 13.0437 72.095 13.8712C73.9491 16.4189 76.4359 17.3553 79.2934 16.6149C81.9765 15.9399 83.5689 13.9801 84.0488 10.8444C84.2015 9.88627 84.3324 8.90637 84.4633 7.88292C84.5287 7.44741 84.5723 7.0119 84.6378 6.55461C86.4701 6.81592 88.3897 7.07723 90.8764 7.40386C90.7674 8.10068 90.6801 8.7975 90.5929 9.47254C90.4838 10.3218 90.3747 11.1275 90.2439 11.955C89.8294 14.8511 90.8328 17.1593 93.1887 18.6183C95.5664 20.0772 98.0749 19.9466 100.474 18.2699C101.543 17.5295 102.59 16.7456 103.703 15.8963C103.921 15.7221 104.139 15.5697 104.379 15.3955L108.175 20.4256C107.673 20.7958 107.193 21.1878 106.713 21.5362C105.95 22.1241 105.23 22.6685 104.488 23.2347C102.067 25.0638 101.194 27.5027 101.936 30.29C102.656 32.8813 104.51 34.4709 107.324 34.8846C108.371 35.037 109.396 35.1895 110.487 35.3854C110.989 35.4725 111.512 35.5597 112.057 35.6468L111.839 37.1493C111.621 38.6953 111.403 40.2414 111.185 41.831C110.378 41.7657 109.549 41.635 108.764 41.5044C105.601 40.96 102.285 40.4156 100.06 44.1828ZM10.8424 81.2665C11.126 80.7221 11.4968 80.2213 11.8895 79.6769C12.1949 79.2414 12.5221 78.7623 12.8275 78.2833C13.6782 76.8679 13.8527 75.3654 13.3074 74.0806C12.7838 72.7741 11.6059 71.8159 9.9917 71.3804C9.31548 71.1845 8.61744 70.9667 7.85397 70.9231C6.95961 70.8796 6.39246 70.6836 6.06525 70.3134C5.73805 69.9433 5.62898 69.3118 5.73805 68.3754C5.86893 67.0906 6.06526 66.8511 7.02505 66.7422C10.5152 66.3285 12.6311 65.1962 13.3728 63.3453C14.0927 61.5379 13.3074 59.2297 11.126 56.6602C10.8861 56.3771 10.6897 56.0287 10.4716 55.6149C10.4498 55.5932 10.4498 55.5714 10.428 55.5496C11.0169 54.9834 11.6059 54.4391 12.2385 53.8729C12.5439 53.5898 12.8493 53.3067 13.1765 53.0019C13.94 53.5027 14.7689 54.0689 15.576 54.6133C17.5174 55.9198 19.1316 56.3553 20.484 55.9416C21.4875 55.6367 22.36 54.8528 23.1017 53.5898C23.3416 54.5262 23.5597 55.4407 23.7997 56.3335L23.9088 56.7908C17.3865 59.0119 14.1581 62.8444 14.049 68.5278C13.94 73.8193 17.1029 78.4139 22.1419 80.2431C27.4207 82.1811 32.2197 80.4608 36.7788 74.9516C37.106 75.2565 37.455 75.5613 37.7822 75.8662C39.2219 77.1727 40.727 78.501 42.1013 79.8947C42.4721 80.2431 42.6466 80.5915 42.6466 80.9181C42.6248 81.3972 42.2104 81.8763 41.8613 82.1811C41.1415 82.7908 40.5743 83.5747 40.0508 84.3369C39.9417 84.4893 39.8545 84.62 39.7454 84.7506C39.3528 84.4893 38.9819 84.228 38.6329 84.0103C37.6077 83.3134 36.7133 82.7037 35.7753 82.1376C34.3793 81.3319 32.9178 81.1359 31.6744 81.6367C30.4092 82.1158 29.4494 83.2481 28.9695 84.7942C28.6859 85.6652 28.4242 86.5144 28.3805 87.4072C28.3369 88.888 27.857 89.2582 25.9592 89.2582C24.5195 89.2582 24.236 88.8009 24.1487 87.7556C24.1269 87.3855 24.0615 86.9935 23.9524 86.558C23.3852 83.836 22.3818 82.2247 20.9203 81.6367C20.5058 81.4843 20.0914 81.3972 19.6115 81.3972C18.3899 81.3972 16.972 81.9634 15.2924 83.0957C14.0054 83.9667 13.2637 84.2716 12.7184 84.1627C12.1731 84.0538 11.6059 83.4659 10.7552 82.1593C10.7115 81.9851 10.7115 81.5278 10.8424 81.2665ZM25.283 75.6049C21.9455 75.0605 19.5897 72.5563 19.2625 69.2247C18.9571 66.1761 20.9857 63.1711 24.0833 62.104C24.585 61.9298 24.9776 61.821 25.3048 61.821C25.9374 61.821 26.3083 62.1912 26.6573 62.9968C27.3553 64.5865 28.3805 66.0236 29.384 67.4391L29.5585 67.6786C30.2347 68.6149 30.9982 69.5295 31.718 70.4005C32.0016 70.7272 32.2852 71.0756 32.5688 71.424C31.1072 74.5161 28.3587 76.1057 25.283 75.6049ZM65.5509 102.519H52.5718V100.255H66.2925C66.2925 100.995 66.2925 101.714 66.3144 102.454C66.0308 102.498 65.7908 102.519 65.5509 102.519ZM65.5727 111.143C64.9837 111.796 63.9149 112.122 62.2134 112.144C60.3593 112.166 58.4833 112.166 56.6291 112.144C54.9277 112.122 53.8588 111.818 53.2698 111.164C52.7027 110.555 52.4627 109.509 52.5282 107.942H66.3144C66.3798 109.488 66.1398 110.511 65.5727 111.143Z" fill="#FFDF63"/>
<path d="M61.8644 82.0068C61.8644 81.7455 61.8644 81.5278 61.8862 81.3318C61.8862 81.0487 61.908 80.7874 61.8862 80.5043V80.4608C61.0573 73.841 57.349 69.2464 50.2159 66.0236C42.9738 62.779 38.1094 56.1593 37.215 48.3418C36.2989 40.4591 39.5491 32.8376 45.9186 27.9599C46.2677 27.6768 46.6167 27.3938 47.0093 27.0889L47.9691 26.3268L47.6419 25.8259C47.3583 25.3904 47.0966 24.9984 46.8348 24.6065C46.4204 23.975 46.0059 23.3435 45.5914 22.6685L45.2206 22.1023L44.6535 22.4943C35.579 28.918 31.3254 37.3234 31.9798 47.4708C32.6778 58.0973 38.0876 66.0454 47.6419 70.4876C53.7497 73.3184 56.5201 76.7807 56.8691 82.0504L56.9127 82.6601H61.8644V82.0068V82.0068Z" fill="#FFDF63"/>
<path d="M11.8022 19.3585C14.3326 21.1659 16.863 22.9733 19.4806 24.846L20.026 25.2379L20.3968 24.6935C20.6586 24.3233 20.8985 23.9749 21.1385 23.6483C21.6402 22.9297 22.1201 22.2547 22.6 21.5361L22.949 21.0135L22.4255 20.6433C19.6115 18.6181 16.8194 16.6583 14.049 14.6768C12.3912 13.5009 10.7116 12.3032 9.03192 11.1056L8.48658 10.7136L8.13756 11.258C7.3959 12.3032 6.74149 13.2178 5.99983 14.263L5.54175 14.9163L6.06527 15.3083C8.00668 16.6583 9.90446 18.0084 11.8022 19.3585Z" fill="#FFDF63"/>
<path d="M23.9962 9.05876C24.7379 11.9331 25.4578 14.7857 26.2212 17.6819L26.3957 18.3351L27.0501 18.1392C28.4244 17.7472 29.5151 17.4206 30.7148 17.0504L31.3256 16.8762L31.1729 16.2665C30.4312 13.4139 29.7114 10.6484 29.0134 7.90466C28.4244 5.61822 27.8354 3.35356 27.2465 1.04536L27.072 0.39209L26.4394 0.566294C25.4796 0.827601 24.6725 1.04536 23.8217 1.28489L22.1421 1.74217L22.2948 2.37367C22.8619 4.63832 23.4291 6.83765 23.9962 9.05876Z" fill="#FFDF63"/>
<path d="M3.07642 36.0169C3.25093 36.7137 3.40362 37.3887 3.57813 38.1726L3.73083 38.8259L4.38523 38.6735C7.02468 38.0202 9.62049 37.3669 12.1945 36.7137C14.7031 36.0822 17.2116 35.4507 19.742 34.8192L20.3964 34.6668L20.2219 34.0135C19.9819 33.1643 19.8074 32.4674 19.6329 31.7706C19.502 31.2916 19.393 30.8125 19.2403 30.3117L19.0658 29.6802L18.4332 29.8326C16.7317 30.2681 15.0521 30.6818 13.3724 31.1174C10.035 31.9448 6.58841 32.8159 3.18549 33.6869L2.57471 33.8393L2.7274 34.4708C2.83647 35.0152 2.94554 35.516 3.07642 36.0169Z" fill="#FFDF63"/>
<path d="M95.6099 82.094L95.1082 81.6803L94.6938 82.1811C93.9085 83.1393 93.1232 84.0756 92.2506 85.1426L91.8362 85.6435L92.3379 86.0572C96.1989 89.28 99.8854 92.3503 103.812 95.6167L104.314 96.0304L104.728 95.5296C105.055 95.1158 105.361 94.7456 105.666 94.3754C106.168 93.7657 106.648 93.1778 107.171 92.5463L107.586 92.0455L107.084 91.6317C102.852 88.1259 99.2964 85.1644 95.6099 82.094Z" fill="#FFDF63"/>
<path d="M109.854 72.0554H95.283V76.9331H109.854V72.0554Z" fill="#FFDF63"/>
<path d="M88.5864 87.3201H83.8965V101.91H88.5864V87.3201Z" fill="#FFDF63"/>
<path d="M61.8643 85.4692H56.9126V92.2632H61.8643V85.4692Z" fill="#FFDF63"/>
<path d="M83.8307 18.7706C83.8089 18.7706 83.8089 18.7706 83.7871 18.7706C79.5116 18.7924 75.4979 20.4473 72.5095 23.4742C69.4992 26.501 67.8632 30.5077 67.885 34.7974C67.9068 39.0872 69.5646 43.0939 72.5749 46.0772C75.5634 49.0604 79.5771 50.6936 83.8743 50.6936C83.8961 50.6936 83.8961 50.6936 83.918 50.6936C88.237 50.6718 92.2726 48.9951 95.3046 45.9247C98.2931 42.8979 99.9291 38.913 99.9073 34.6886C99.7982 25.913 92.5998 18.7706 83.8307 18.7706ZM94.6721 34.8192C94.6721 37.6718 93.5159 40.372 91.4436 42.4407C89.3714 44.5093 86.6447 45.6417 83.8089 45.6199C80.9731 45.5981 78.2464 44.444 76.1741 42.3536C74.1019 40.2631 72.9675 37.5412 72.9894 34.7103C73.033 28.8745 78.0065 23.9532 83.8743 23.9532C83.8961 23.9532 83.8961 23.9532 83.918 23.9532C89.8513 23.975 94.6939 28.8527 94.6721 34.8192Z" fill="#FFDF63"/>
</svg>
