<svg width="118" height="117" viewBox="0 0 118 117" fill="none" xmlns="http://www.w3.org/2000/svg">
<path d="M89.5385 69.2833C93.1789 65.4205 96.5104 61.7563 99.9963 58.2467C102.887 55.3551 106.461 54.5826 110.322 55.8849C114.05 57.1651 116.411 59.8139 117.183 63.7429C117.757 66.6787 117.051 69.3716 115.308 71.7334C109.77 79.1942 104.254 86.677 98.5622 94.0274C93.6643 100.318 87.0454 103.298 79.1028 103.32C66.6814 103.342 54.2821 103.32 41.8607 103.32C41.0444 103.32 40.206 103.32 39.2573 103.32C39.0588 108.75 36.1024 111.973 31.425 113.915C30.1013 114.467 28.8437 115.196 27.542 115.836C23.6148 117.8 22.4455 117.425 20.526 113.584C15.6281 103.784 10.7301 93.9832 5.83216 84.1827C4.2657 81.0483 2.69924 77.936 1.15484 74.7795C-0.279243 71.8438 0.206138 70.4311 3.18462 68.9081C5.2144 67.8706 7.26624 66.8773 9.29602 65.8399C12.1421 64.3831 15.0324 64.052 18.1212 65.1336C18.783 65.3543 19.8641 65.0453 20.4598 64.5817C22.7323 62.7938 24.8062 60.741 27.0787 58.9531C35.617 52.2428 47.8177 52.1324 56.2898 58.931C59.1801 61.2487 62.0703 62.5068 65.821 62.2199C69.6158 61.9329 73.4326 62.3082 77.2495 62.1095C82.7873 61.8667 87.0895 63.6546 89.5385 69.2833ZM59.4007 96.4775C66.1078 96.4775 72.8149 96.5216 79.4999 96.4554C84.9053 96.4113 89.5385 94.4247 92.8479 90.1425C98.5401 82.8142 104.1 75.3534 109.549 67.8265C110.233 66.8773 110.344 64.979 109.858 63.8754C108.888 61.6239 106.13 61.6239 104.166 63.7209C99.4668 68.7094 94.7674 73.72 90.1342 78.7748C87.6632 81.4677 84.7288 82.8363 81.0664 82.7921C75.0432 82.7259 69.0421 82.7921 63.019 82.77C60.2832 82.77 58.805 81.556 58.7609 79.4149C58.7167 77.1855 60.2611 75.9273 63.1072 75.9273C68.3582 75.9053 73.6092 75.9494 78.8822 75.9053C81.4856 75.8832 83.0962 74.5147 83.052 72.4177C83.0079 70.387 81.4856 69.0847 78.9704 69.0847C74.624 69.0626 70.2777 68.8418 65.9533 69.1288C60.6141 69.504 56.2678 67.9589 52.142 64.4934C46.0086 59.3504 37.3379 59.5932 31.05 64.5596C29.0864 66.1268 27.2993 67.9148 25.3357 69.4599C24.1664 70.387 24.0561 71.1816 24.74 72.506C28.5127 79.8784 32.2414 87.295 35.8597 94.7558C36.5657 96.1905 37.382 96.4996 38.8381 96.4996C45.6997 96.4333 52.5392 96.4775 59.4007 96.4775ZM8.52382 74.2939C14.3043 85.8603 20.0847 97.3825 25.8873 108.993C27.1007 108.397 28.0494 107.933 28.9761 107.47C32.5944 105.66 33.0356 104.402 31.2485 100.826C27.2552 92.8133 23.0632 84.867 19.2684 76.7661C15.7604 69.2833 14.4367 71.005 8.94302 73.7642C8.8327 73.8083 8.76651 73.9849 8.52382 74.2939Z" fill="#FFDF63"/>
<path d="M72.6384 23.4813C80.3604 28.4037 83.5153 35.4671 83.0962 44.3184C82.9638 47.2321 81.8386 48.4682 78.8822 48.4682C67.9169 48.4903 56.9517 48.4903 45.9865 48.4682C42.9198 48.4682 41.8166 47.2763 41.6842 44.1639C41.3092 35.3126 44.5965 28.3154 52.2082 23.5476C47.0896 14.6521 47.6412 8.09633 53.8188 3.12986C59.2021 -1.19649 66.527 -1.0199 71.5794 3.54925C77.2495 8.64816 77.6687 15.7337 72.6384 23.4813ZM76.0802 41.471C76.3229 33.9661 69.8805 27.5649 62.335 27.6753C54.8116 27.7856 48.3913 34.3193 48.8326 41.471C57.9225 41.471 67.0124 41.471 76.0802 41.471ZM62.2688 20.7222C66.0416 20.8546 69.1966 17.963 69.351 14.2106C69.5055 10.4361 66.4387 7.01474 62.7542 6.8823C59.0697 6.72779 55.6941 9.86218 55.5176 13.6146C55.3411 17.4112 58.3637 20.5898 62.2688 20.7222Z" fill="#FFDF63"/>
</svg>
