<svg width="121" height="118" viewBox="0 0 121 118" fill="none" xmlns="http://www.w3.org/2000/svg">
<path d="M36.4937 65.6125C51.3178 51.4025 68.6767 51.4025 84.8813 65.4858C90.1773 54.0621 102.399 53.6062 111.022 57.0763C117.291 59.584 120.527 65.4605 120.663 72.9835C120.821 82.2542 120.708 91.5249 120.708 100.77C120.686 106.216 117.924 109.433 113.036 109.509C106.857 109.585 100.701 109.56 94.5227 109.509C93.1421 109.509 92.35 109.712 91.8747 111.535C90.811 115.664 87.8462 117.843 83.6818 117.918C78.9291 117.994 74.1537 117.944 69.4009 117.944C59.1032 117.944 48.783 117.969 38.4853 117.944C33.4157 117.944 31.2203 116.12 29.274 110.851C29.025 110.218 27.8934 109.636 27.1692 109.61C21.149 109.509 15.1515 109.56 9.1313 109.56C3.22429 109.534 0.757373 106.748 0.757373 100.137C0.757373 91.3982 0.734741 82.6594 0.757373 73.9207C0.780005 63.4088 7.29809 55.9112 16.6678 55.5566C17.8447 55.5059 19.0216 55.5819 20.1758 55.5312C27.3502 55.1513 32.8725 58.2668 36.4937 65.6125ZM60.5743 110.041C67.9751 110.041 75.3985 110.041 82.7992 110.041C84.1798 110.041 85.2887 109.914 85.2661 107.863C85.1982 100.365 85.4472 92.842 85.085 85.3444C84.5871 74.9085 77.9333 66.2457 68.7672 64.118C65.2366 63.3075 61.4796 63.3835 57.8358 63.4088C45.2297 63.5101 36.2221 73.6167 36.0863 87.7254C36.0184 94.1085 36.1768 100.466 36.0184 106.849C35.9505 109.458 36.8558 110.117 39.0285 110.066C46.2255 109.965 53.3999 110.041 60.5743 110.041ZM113.602 101.53C113.602 91.5249 113.737 81.8489 113.534 72.1729C113.443 67.6642 110.026 64.042 105.975 63.5608C103.892 63.3075 101.765 63.3328 99.6602 63.4088C93.3911 63.5861 89.0004 69.184 90.6752 75.8964C92.5537 83.4953 92.3047 91.0943 92.3726 98.7438C92.3726 99.6557 92.4405 100.568 92.4858 101.53C99.6376 101.53 106.495 101.53 113.602 101.53ZM29.0024 101.53C29.0024 99.6811 29.0024 98.1359 29.0024 96.5908C29.025 89.7011 28.9571 82.8874 30.6772 76.099C32.3746 69.4373 28.0745 63.6874 21.8732 63.4088C20.1532 63.3328 18.4331 63.3328 16.7131 63.4088C11.2135 63.6368 7.75073 67.6642 7.7281 73.794C7.70547 82.3555 7.70547 90.9169 7.7281 99.4784C7.7281 100.137 7.81863 100.821 7.88652 101.53C14.9251 101.53 21.7827 101.53 29.0024 101.53Z" fill="#FFDF63"/>
<path d="M61.0271 46.5645C49.8242 46.8685 40.5223 36.7619 40.3186 24.0717C40.1149 11.6094 48.9641 1.35087 60.235 0.970922C71.4379 0.590975 80.7398 10.5962 81.0566 23.3118C81.3735 35.85 72.3885 46.2606 61.0271 46.5645ZM47.3799 23.6917C47.3346 31.8986 53.1511 38.5603 60.5066 38.687C67.8847 38.839 73.9727 32.1772 74.0406 23.8691C74.1085 15.6875 68.2694 9.0258 60.914 8.87382C53.468 8.72184 47.4252 15.3582 47.3799 23.6917Z" fill="#FFDF63"/>
<path d="M32.307 32.1518C32.3296 40.1814 26.5131 46.6405 19.3613 46.5645C12.2774 46.4885 6.61938 40.1054 6.59675 32.2025C6.57411 24.173 12.3906 17.7139 19.565 17.7898C26.6489 17.8405 32.2843 24.2236 32.307 32.1518ZM19.5424 38.6616C22.7788 38.6109 25.2683 35.7233 25.2683 32.1265C25.2457 28.5044 22.7109 25.6674 19.4745 25.6674C16.1475 25.6421 13.5675 28.631 13.6354 32.3291C13.7259 35.926 16.3286 38.7123 19.5424 38.6616Z" fill="#FFDF63"/>
<path d="M101.606 46.5392C94.4093 46.3112 88.7965 39.6495 89.068 31.6706C89.3396 23.717 95.1788 17.5366 102.24 17.7645C109.437 17.9925 115.027 24.6289 114.756 32.6331C114.507 40.612 108.668 46.7671 101.606 46.5392ZM102.036 25.6674C98.7999 25.5914 96.1972 28.3777 96.1293 31.9745C96.0388 35.5967 98.5057 38.535 101.719 38.6616C105.046 38.7883 107.717 35.926 107.762 32.2278C107.762 28.6057 105.25 25.7181 102.036 25.6674Z" fill="#FFDF63"/>
</svg>
