<svg width="596" height="164" viewBox="0 0 596 164" fill="none" xmlns="http://www.w3.org/2000/svg">
<path d="M0 120.121C0 116.255 3.13401 113.121 7 113.121H16V121.121C16 125.539 12.4183 129.121 8 129.121H0V120.121Z" fill="#0C547A"/>
<path d="M538 23.1206C538 19.2546 534.866 16.1206 531 16.1206H527V19.1206C527 23.5389 530.582 27.1206 535 27.1206H538V23.1206Z" fill="#0C547A"/>
<path d="M451 159.121C451 156.911 449.209 155.121 447 155.121H443V159.121C443 161.33 444.791 163.121 447 163.121H451V159.121Z" fill="#0097D4"/>
<path d="M286 140.121C286 137.359 283.761 135.121 281 135.121H276V140.121C276 142.882 278.239 145.121 281 145.121H286V140.121Z" fill="#7CC3E6"/>
<path d="M42 5.12061C42 2.35918 44.2386 0.120605 47 0.120605H52V5.12061C52 7.88203 49.7614 10.1206 47 10.1206H42V5.12061Z" fill="#FFE989"/>
<path d="M596 95.1206C596 92.3592 593.761 90.1206 591 90.1206H583V98.1206C583 100.882 585.239 103.121 588 103.121H596V95.1206Z" fill="#7CC3E6"/>
</svg>
