<svg width="47" height="47" viewBox="0 0 47 47" fill="none" xmlns="http://www.w3.org/2000/svg">
<path d="M1.5 1.5H45.5V17C45.5 32.7401 32.7401 45.5 17 45.5H1.5V1.5Z" fill="#0C547A" stroke="#0C547A" stroke-width="3"/>
<path d="M34.9765 29.3423C34.9278 27.5307 35.1958 25.7344 34.3891 24.0416C33.7117 22.5865 32.5519 21.4236 31.1154 20.7593C30.8343 20.6262 30.6038 20.6501 30.3237 20.7861C29.4604 21.217 28.478 21.3296 27.5428 21.1049C27.1943 21.0236 26.8167 20.9259 26.9104 20.4519C27.0041 19.978 27.391 20.0258 27.7415 20.0977C28.759 20.3073 29.6931 20.1197 30.5382 19.4992C31.2356 18.9862 31.7223 18.2275 31.9045 17.3694C32.0867 16.5113 31.9514 15.6147 31.5248 14.8525C31.1004 14.0898 30.4152 13.5143 29.6008 13.2365C28.7865 12.9587 27.9004 12.9981 27.1128 13.3473C26.9694 13.4105 26.8317 13.4766 26.6893 13.5493C26.3838 13.7092 26.1271 13.6355 25.9791 13.3349C25.831 13.0342 25.9622 12.8044 26.2292 12.6503C27.0968 12.1495 28.0282 11.9187 29.0185 12.0604C30.7921 12.3142 32.0298 13.3052 32.6904 15.0019C33.3284 16.6392 32.9715 18.288 31.6851 19.864C31.7862 19.932 31.8799 20.0057 31.9821 20.0641C34.538 21.5259 35.8707 23.7521 35.98 26.7427C36.0156 27.7145 35.9903 28.6893 35.9866 29.663C35.9866 30.2576 35.8245 30.4137 35.2248 30.4137C33.6648 30.4137 32.1039 30.4137 30.4717 30.4137V30.947C30.4717 32.0807 30.4717 33.2134 30.4717 34.3471C30.4717 34.8469 30.3181 35.003 29.8233 35.0039C23.9356 35.0039 18.0481 35.0039 12.161 35.0039C11.671 35.0039 11.522 34.845 11.5192 34.3404C11.5127 33.223 11.5192 32.1056 11.5192 30.9892V30.4147H10.9711C9.55069 30.4147 8.12935 30.4147 6.70801 30.4147C6.31262 30.4147 6.00343 30.2998 6.00624 29.8402C6.01467 28.5169 5.95377 27.1831 6.09243 25.8733C6.3679 23.288 7.73115 21.3855 9.92641 20.0948C10.0201 20.0392 10.1204 19.9923 10.215 19.9358C10.2384 19.9215 10.2515 19.888 10.289 19.8401C9.65094 19.1296 9.19278 18.3081 9.06348 17.3343C8.81707 15.4777 9.42421 13.9553 10.913 12.8743C12.4018 11.7933 13.9796 11.7454 15.6024 12.5612C15.9303 12.7259 16.1889 12.95 16.0006 13.3406C15.8123 13.7313 15.4825 13.6566 15.1574 13.4814C14.7288 13.24 14.2552 13.0942 13.7675 13.0533C13.2799 13.0124 12.7893 13.0776 12.328 13.2443C11.8667 13.4111 11.4452 13.6758 11.0912 14.0209C10.7372 14.3661 10.4587 14.7839 10.274 15.247C9.77181 16.5415 9.94046 17.7681 10.7837 18.8491C11.6476 19.9464 12.8075 20.3399 14.167 20.1206C14.2748 20.1034 14.3806 20.0785 14.4893 20.0651C14.7957 20.0249 15.0262 20.1446 15.0833 20.4615C15.1405 20.7784 14.9587 20.9613 14.6617 21.0465C13.6626 21.3475 12.589 21.2518 11.656 20.7784C11.5352 20.7108 11.3997 20.6753 11.262 20.6753C11.1243 20.6753 10.9888 20.7108 10.868 20.7784C8.4629 21.9667 7.15025 23.9075 7.02657 26.646C6.98628 27.5336 7.02001 28.424 7.02001 29.3394H11.5483C11.7666 27.6609 12.3156 26.104 13.2985 24.7243C14.2813 23.3445 15.5237 22.3305 17.0594 21.5799C15.7842 20.1158 15.2454 18.4488 15.6099 16.5386C15.8461 15.2376 16.5412 14.0704 17.5634 13.2583C18.6067 12.399 19.9222 11.9605 21.2606 12.026C22.599 12.0915 23.8675 12.6563 24.8257 13.6135C26.7052 15.4662 27.3114 18.874 24.9531 21.5693C28.1 23.1786 29.9317 25.7692 30.4483 29.3413L34.9765 29.3423ZM29.4289 33.9497C29.4289 32.3785 29.576 30.8484 29.3989 29.3538C29.0138 26.1155 27.272 23.8108 24.3563 22.4598C24.2689 22.4229 24.1751 22.4045 24.0806 22.4056C23.9861 22.4068 23.8928 22.4275 23.8063 22.4665C21.9324 23.5274 20.0679 23.5284 18.1959 22.4617C18.0667 22.3868 17.9138 22.3672 17.7705 22.4071C14.9934 23.6299 13.1963 25.7469 12.696 28.7898C12.4252 30.4396 12.5564 32.1573 12.5086 33.8444C12.5086 33.8712 12.5395 33.898 12.5686 33.9402L29.4289 33.9497ZM16.5056 17.6235C16.5039 18.841 16.9735 20.0098 17.8121 20.8747C18.6507 21.7395 19.79 22.2302 20.9814 22.2396C23.4371 22.2606 25.4787 20.18 25.4872 17.6541C25.4903 17.0515 25.3768 16.4543 25.1532 15.8967C24.9296 15.3391 24.6004 14.8322 24.1844 14.405C23.7685 13.9779 23.274 13.639 22.7295 13.4079C22.1849 13.1767 21.601 13.0579 21.0114 13.0581C20.4217 13.0536 19.8369 13.1683 19.2907 13.3956C18.7446 13.623 18.2478 13.9585 17.829 14.3828C17.4102 14.8071 17.0777 15.3119 16.8506 15.868C16.6235 16.4242 16.5062 17.0208 16.5056 17.6235Z" fill="white"/>
</svg>
