<svg width="29" height="25" viewBox="0 0 29 25" fill="none" xmlns="http://www.w3.org/2000/svg">
<path d="M25.7854 0.120605H2.70728C1.35201 0.120605 0.246338 1.36344 0.246338 2.88984V21.3514C0.246338 22.8726 1.34709 24.1206 2.70728 24.1206H25.7854C27.1373 24.1206 28.2463 22.882 28.2463 21.3514V2.88984C28.2463 1.36861 27.1456 0.120605 25.7854 0.120605ZM25.4456 1.96676L14.2985 14.5103L3.05503 1.96676H25.4456ZM1.88696 20.9691V3.26331L9.78816 12.0781L1.88696 20.9691ZM3.04705 22.2745L10.9532 13.3778L13.7235 16.4684C14.0442 16.8262 14.5617 16.825 14.8811 16.4656L17.5823 13.426L25.4456 22.2745H3.04705ZM26.6057 20.969L18.7424 12.1206L26.6057 3.27211V20.969Z" fill="#0097D4"/>
</svg>
