<svg width="29" height="29" viewBox="0 0 29 29" fill="none" xmlns="http://www.w3.org/2000/svg">
<path d="M13.9628 28.5243C11.3196 28.5243 8.67501 28.544 6.03306 28.5123C5.2697 28.5157 4.50986 28.4259 3.77771 28.2456C1.53284 27.6432 0.222334 26.3007 0.0611432 24.3601C-0.151156 21.7888 0.207912 19.2623 1.6927 16.9369C2.81317 15.1812 4.5522 14.1568 6.97268 14.0945C7.49687 14.0814 8.0735 14.2639 8.56232 14.4629C9.53863 14.8587 10.435 15.4042 11.431 15.7541C13.6916 16.551 15.8749 16.2209 17.9559 15.2391C18.3229 15.0769 18.6716 14.8874 18.9977 14.6728C20.0579 13.936 21.2361 13.972 22.464 14.2585C24.2345 14.6717 25.4926 15.6141 26.3208 16.9468C27.8383 19.3848 28.2289 22.0151 27.8934 24.698C27.6103 26.9249 25.3025 28.4741 22.4221 28.5123C19.6045 28.5484 16.787 28.52 13.9681 28.52L13.9628 28.5243ZM14.0153 26.8845C16.7673 26.8845 19.5193 26.9042 22.2714 26.879C24.5922 26.8571 26.0548 25.6896 26.0128 23.7807C25.9684 22.4545 25.8037 21.133 25.5201 19.8275C25.3009 18.6672 24.6727 17.5875 23.7155 16.726C22.5282 15.671 21.0945 15.5157 19.653 16.2887C19.3594 16.4461 19.0698 16.6166 18.7658 16.7511C16.7293 17.688 14.5722 18.063 12.2645 17.6935C10.6499 17.4322 9.20838 16.8375 7.89264 16.0339C7.36845 15.7059 6.84426 15.6874 6.23095 15.8098C4.89425 16.0777 4.0031 16.7937 3.40027 17.7635C2.12123 19.8155 1.84735 22.0392 2.03344 24.2924C2.15007 25.6961 3.24564 26.5488 4.91652 26.8068C5.32479 26.8642 5.7383 26.8917 6.15231 26.8888C8.7746 26.8856 11.3943 26.8823 14.0153 26.8823V26.8845Z" fill="#0097D4"/>
<path d="M5.71466 7.20739C5.78804 3.39521 9.4194 0.462019 13.9825 0.531988C15.5736 0.563932 17.118 0.987462 18.4214 1.74937C19.7249 2.51127 20.7293 3.57757 21.3085 4.81426C21.8878 6.05094 22.0159 7.40285 21.677 8.70013C21.338 9.9974 20.547 11.1822 19.4033 12.1056C18.2597 13.0289 16.8144 13.6497 15.2491 13.89C13.6838 14.1302 12.0683 13.9791 10.6056 13.4557C9.14288 12.9323 7.89823 12.06 7.02803 10.9483C6.15783 9.83656 5.70091 8.53508 5.71466 7.20739V7.20739ZM7.68039 7.1921C7.66021 7.85813 7.79859 8.52089 8.08752 9.14201C8.37646 9.76312 8.81023 10.3303 9.36369 10.8106C9.91715 11.2909 10.5793 11.6749 11.3119 11.9402C12.0444 12.2056 12.8328 12.3472 13.6313 12.3566C17.0596 12.4102 19.8247 10.2292 19.9086 7.40309C19.9309 6.73301 19.7943 6.06585 19.5066 5.43994C19.219 4.81403 18.7859 4.2417 18.2323 3.75582C17.6788 3.26994 17.0156 2.88007 16.2809 2.60862C15.5462 2.33718 14.7544 2.1895 13.9511 2.17406C10.4861 2.1194 7.75507 4.31028 7.68692 7.1921H7.68039Z" fill="#0097D4"/>
</svg>
