<svg width="720" height="272" viewBox="0 0 720 272" fill="none" xmlns="http://www.w3.org/2000/svg">
<path d="M633 256.121C633 253.911 631.209 252.121 629 252.121H625V256.121C625 258.33 626.791 260.121 629 260.121H633V256.121Z" fill="#0097D4"/>
<path d="M131 268.121C131 266.464 132.343 265.121 134 265.121H137V268.121C137 269.777 135.657 271.121 134 271.121H131V268.121Z" fill="#FFDD4A"/>
<path d="M10 153.121C10 150.359 7.76142 148.121 5 148.121H0V153.121C0 155.882 2.23858 158.121 5 158.121H10V153.121Z" fill="#7CC3E6"/>
<path d="M47 5C47 2.23858 44.7614 0 42 0H37V5C37 7.76142 39.2386 10 42 10H47V5Z" fill="#FFE989"/>
<path d="M720 66.1206C720 63.3592 717.761 61.1206 715 61.1206H707V69.1206C707 71.882 709.239 74.1206 712 74.1206H720V66.1206Z" fill="#7CC3E6"/>
</svg>
