<svg width="41" height="37" viewBox="0 0 41 37" fill="none" xmlns="http://www.w3.org/2000/svg">
<rect width="41" height="37" rx="18.5" fill="#7CC3E6"/>
<rect x="2" width="37" height="37" rx="18.5" fill="#0C547A"/>
<path d="M25.5135 29.9938C23.897 29.9938 22.2805 29.9938 20.664 29.9938C19.6528 29.9938 19.0807 29.4217 19.0798 28.4024C19.0763 25.1539 19.0763 21.9053 19.0798 18.6567C19.0798 17.6464 19.66 17.0753 20.6757 17.0726C22.4574 17.0726 26.1278 17.0654 27.9086 17.0807C28.0882 17.0807 28.372 17.166 28.4771 17.298C28.645 17.5099 28.2786 17.7569 27.9014 17.7596C26.7941 17.7668 23.8952 17.7596 22.7825 17.7596C22.0641 17.7596 21.3456 17.7596 20.6272 17.7596C20.0291 17.7596 19.7678 18.0119 19.7669 18.5975C19.7627 21.8903 19.7627 25.1832 19.7669 28.4761C19.7669 29.0338 20.0309 29.3059 20.5949 29.3068C23.8877 29.3139 27.1806 29.3139 30.4734 29.3068C31.0527 29.3068 31.3149 29.0311 31.3158 28.4374C31.3212 25.1584 31.3212 21.8799 31.3158 18.602C31.3158 18.0119 31.0464 17.7614 30.4564 17.7569C29.6032 17.7506 28.7501 17.7569 27.896 17.7569C27.641 17.7569 27.377 17.7327 27.3805 17.4067C27.3841 17.0807 27.65 17.0654 27.9032 17.0654C28.7716 17.0654 29.6401 17.0564 30.5076 17.0654C31.4056 17.0789 31.992 17.6698 31.9929 18.5714C31.9983 21.8799 31.9983 25.1883 31.9929 28.4967C31.9929 29.3948 31.3984 29.9803 30.4932 29.9839C28.8372 29.9983 27.1749 29.9938 25.5135 29.9938Z" fill="white"/>
<path d="M9.00718 13.4202C9.00718 11.8187 9.00718 10.2174 9.00718 8.6165C9.00718 7.56128 9.56038 7 10.6012 7C13.8486 7 17.0959 7 20.3433 7C21.3572 7 21.9266 7.57026 21.9284 8.58865C21.9332 10.9685 21.9332 13.348 21.9284 15.7273C21.9284 15.8171 21.9553 15.9302 21.9122 15.9913C21.8224 16.1125 21.7003 16.285 21.5889 16.2868C21.4775 16.2886 21.3267 16.1269 21.2602 16.0021C21.2036 15.8961 21.2378 15.739 21.2378 15.6042C21.2378 13.2843 21.2378 10.9646 21.2378 8.64523C21.2378 7.91242 21.007 7.67802 20.2733 7.67712C17.0708 7.67712 13.8677 7.67712 10.6641 7.67712C9.91062 7.67712 9.68162 7.91242 9.68162 8.67936C9.68162 11.8662 9.68162 15.0537 9.68162 18.2418C9.68162 19.0088 9.90703 19.2297 10.6695 19.2297C12.9889 19.2297 15.3082 19.2297 17.6276 19.2297C17.7767 19.2297 17.9392 19.2144 18.0685 19.2701C18.1718 19.315 18.3038 19.4632 18.2958 19.5539C18.2637 19.6904 18.1792 19.8088 18.0605 19.8835C17.9707 19.94 17.8297 19.9176 17.7111 19.9176C15.3462 19.9176 12.9814 19.9176 10.6165 19.9176C9.56667 19.9176 9 19.3545 9 18.3128C9.0006 16.6825 9.00299 15.0516 9.00718 13.4202Z" fill="white"/>
<path d="M15.4553 15.51C14.859 15.959 14.2546 16.4233 13.644 16.8759C13.4419 17.0259 13.2039 17.1453 13.027 16.8598C12.8501 16.5742 13.0979 16.4458 13.2964 16.3003C13.8685 15.8737 14.4325 15.4354 14.9946 15.0053C14.5609 14.3237 14.1675 13.7112 13.7832 13.0933C13.6808 12.929 13.5604 12.7521 13.538 12.5697C13.5337 12.54 13.5337 12.5097 13.538 12.4799C13.5456 12.4213 13.5684 12.3656 13.6042 12.3185C13.6399 12.2713 13.6874 12.2344 13.7419 12.2112C13.7963 12.1881 13.8559 12.1796 13.9146 12.1865C13.9734 12.1935 14.0293 12.2157 14.0768 12.2509C14.0966 12.2665 14.1138 12.285 14.128 12.3057C14.5223 12.9029 14.8788 13.5244 15.2515 14.1351C15.3178 14.2266 15.3895 14.3142 15.4661 14.3973C16.2261 13.484 16.8052 12.4344 17.1724 11.3044C16.9775 11.2945 16.8231 11.2792 16.6695 11.2792C15.338 11.2792 14.0065 11.2792 12.675 11.2792H12.3615C12.1146 11.2792 11.8631 11.2047 11.9125 10.92C11.9368 10.7898 12.1954 10.6183 12.3544 10.6111C13.1006 10.5788 13.8496 10.5967 14.5995 10.5967H15.0853L14.9632 10.4396L15.3646 10.0345L15.925 10.4638L15.8352 10.5967H17.9654C18.2052 10.5967 18.453 10.5599 18.6838 10.6138C18.707 10.6197 18.7291 10.629 18.7494 10.6416C18.7973 10.6726 18.8371 10.7145 18.8656 10.7639C18.8941 10.8133 18.9105 10.8687 18.9133 10.9257C18.9161 10.9826 18.9053 11.0394 18.8818 11.0914C18.8583 11.1433 18.8228 11.189 18.7781 11.2245C18.7676 11.2353 18.7548 11.2438 18.7407 11.2492C18.7266 11.2546 18.7115 11.2569 18.6964 11.2559C17.9061 11.0763 17.8145 11.6582 17.5667 12.171C17.1078 13.1194 16.5635 14.0264 16.004 15.0448C16.4288 15.3798 16.9389 15.7839 17.4526 16.1844C17.5424 16.2581 17.6915 16.2931 17.7454 16.3847C17.7643 16.4185 17.7808 16.4536 17.7948 16.4898C17.8166 16.541 17.8255 16.5968 17.8207 16.6523C17.8158 16.7078 17.7973 16.7612 17.7668 16.8079C17.7364 16.8545 17.6948 16.8929 17.646 16.9196C17.5971 16.9464 17.5424 16.9607 17.4867 16.9612C17.4578 16.9614 17.4294 16.9533 17.405 16.9379C16.7306 16.4799 16.0965 15.9869 15.4553 15.51Z" fill="white"/>
<path d="M28.4131 26.6764C28.4215 26.7214 28.4206 26.7676 28.4104 26.8123C28.4002 26.8569 28.3809 26.899 28.3538 26.9359C28.3027 27.006 28.2452 27.0751 28.185 27.0778C28.1096 27.0772 28.0353 27.0591 27.9681 27.0248C27.9009 26.9905 27.8426 26.941 27.7979 26.8802C27.6421 26.5578 27.5117 26.2236 27.4082 25.8807C27.3247 25.6221 27.1998 25.5017 26.9008 25.508C25.9893 25.5305 25.0768 25.5242 24.1653 25.508C23.9193 25.508 23.7836 25.5682 23.7073 25.8151C23.6079 26.1592 23.4759 26.493 23.3131 26.812C23.3002 26.834 23.2845 26.8542 23.2664 26.8721C23.2239 26.9101 23.1725 26.9366 23.117 26.9492C23.0614 26.9618 23.0036 26.96 22.9489 26.944C22.8943 26.928 22.8446 26.8983 22.8046 26.8578C22.7646 26.8172 22.7356 26.7672 22.7203 26.7123C22.7052 26.6662 22.7052 26.6165 22.7203 26.5704C23.4927 24.4845 24.2842 22.4064 25.0948 20.3361C25.1577 20.1763 25.3831 19.9886 25.5438 19.9823C25.7046 19.976 25.9489 20.1484 26.0081 20.3011C26.8164 22.3873 27.6067 24.4833 28.3969 26.5776C28.4054 26.6099 28.4108 26.643 28.4131 26.6764V26.6764ZM24.5847 24.8183H26.5101C26.5649 24.8182 26.6189 24.8048 26.6674 24.7793C26.7159 24.7538 26.7575 24.7169 26.7887 24.6718C26.8198 24.6267 26.8396 24.5747 26.8463 24.5203C26.853 24.4659 26.8464 24.4107 26.8272 24.3594L25.8671 21.8224C25.8426 21.7582 25.7991 21.7031 25.7425 21.6641C25.6859 21.6252 25.6188 21.6043 25.5501 21.6043C25.4814 21.6043 25.4143 21.6252 25.3577 21.6641C25.3011 21.7031 25.2577 21.7582 25.2331 21.8224L24.2677 24.3594C24.2484 24.4107 24.2418 24.4659 24.2485 24.5203C24.2552 24.5747 24.275 24.6267 24.3061 24.6718C24.3373 24.7169 24.3789 24.7538 24.4274 24.7793C24.4759 24.8048 24.5299 24.8182 24.5847 24.8183V24.8183Z" fill="white"/>
<path d="M24.201 11.7444C24.3528 11.8639 24.5351 11.9609 24.65 12.1099C24.7299 12.2177 24.7874 12.4692 24.729 12.5248C24.6294 12.62 24.3761 12.6937 24.28 12.6326C23.7695 12.2934 23.2798 11.9239 22.8135 11.5262C22.7327 11.457 22.7434 11.1167 22.8324 11.0413C23.2888 10.653 23.7687 10.2931 24.2692 9.96359C24.3671 9.89893 24.5755 10.0004 24.7335 10.0256C24.7039 10.1827 24.7183 10.3731 24.633 10.4907C24.518 10.6488 24.3267 10.7503 24.0717 10.9523C24.527 10.9523 24.8646 10.9523 25.2014 10.9523C25.9504 10.9604 26.6667 11.2607 27.1976 11.7891C27.7285 12.3175 28.0321 13.0323 28.0438 13.7812C28.0563 14.4548 28.068 15.1283 28.0312 15.8C28.0222 15.9734 27.8516 16.2616 27.7187 16.2805C27.407 16.3254 27.3594 16.0452 27.3594 15.7875C27.3594 15.1741 27.3648 14.5607 27.3594 13.9474C27.3442 12.5293 26.4713 11.6537 25.0631 11.6385C24.7847 11.6385 24.5063 11.6385 24.227 11.6385L24.201 11.7444Z" fill="white"/>
<path d="M16.8048 25.2431C16.6638 25.1335 16.4824 25.05 16.3926 24.9081C16.3028 24.7662 16.3181 24.5785 16.2866 24.4106C16.4474 24.3953 16.6566 24.3082 16.7617 24.3783C17.2466 24.7007 17.7073 25.0608 18.1653 25.4218C18.3665 25.5798 18.3818 25.7972 18.1797 25.9606C17.7109 26.3333 17.235 26.6979 16.7374 27.0284C16.6404 27.0931 16.4312 26.9907 16.2731 26.9655C16.3037 26.8075 16.2893 26.618 16.3746 26.5012C16.4905 26.3432 16.6827 26.2426 16.9422 26.0388C16.4824 26.0388 16.1447 26.0441 15.808 26.0388C15.0588 26.0314 14.3421 25.7317 13.8107 25.2036C13.2793 24.6755 12.9751 23.9608 12.9629 23.2117C12.9504 22.5381 12.9387 21.8646 12.9755 21.192C12.9845 21.0177 13.1551 20.7295 13.2862 20.7106C13.5969 20.6648 13.6454 20.9441 13.6454 21.2027C13.6454 21.8161 13.641 22.4295 13.6454 23.0437C13.6598 24.4591 14.5354 25.3383 15.9427 25.3526C16.2211 25.3526 16.4995 25.3526 16.7779 25.3526L16.8048 25.2431Z" fill="white"/>
</svg>
