<svg width="76" height="76" viewBox="0 0 76 76" fill="none" xmlns="http://www.w3.org/2000/svg">
<path d="M0 20C0 8.95431 8.9543 0 20 0H71.961C74.1701 0 75.961 1.79086 75.961 4V71.961C75.961 74.1701 74.1701 75.961 71.961 75.961H0V20Z" fill="#E3B505"/>
<path d="M45.7159 49.337C44.615 50.1614 43.5728 50.9121 42.5741 51.7147C42.4758 51.8143 42.3997 51.9336 42.3509 52.0647C42.302 52.1959 42.2816 52.3359 42.2909 52.4755C42.3781 53.3336 42.5135 54.1862 42.6964 55.0291C42.7623 55.3267 42.9429 55.5863 43.1991 55.7513C45.0138 56.6696 46.8637 57.5208 48.6784 58.4323C49.151 58.6703 49.4677 58.5681 49.8882 58.3318C50.3084 58.0945 50.7727 57.9458 51.2526 57.8949C51.7324 57.8441 52.2176 57.8921 52.6782 58.0361C53.1387 58.1801 53.5649 58.417 53.9303 58.7321C54.2958 59.0473 54.5927 59.434 54.8029 59.8684C55.0183 60.3011 55.1426 60.7735 55.1682 61.2563C55.1938 61.7391 55.12 62.222 54.9515 62.6751C54.783 63.1282 54.5232 63.5419 54.1884 63.8906C53.8536 64.2394 53.4508 64.5157 53.0049 64.7025C51.7482 65.2421 50.5417 65.0846 49.4509 64.2618C48.2277 63.3403 47.906 62.0684 48.1272 60.6123C48.1473 60.48 48.1891 60.3526 48.2294 60.185L42.4367 57.3918C41.9039 59.3523 41.0057 61.0379 39.5345 62.3583C36.686 64.9153 33.3766 65.7096 29.7522 64.4948C26.1278 63.2799 23.9378 60.6693 23.1888 56.9176C23.0564 56.2473 22.8403 56.0462 22.1834 56.0798C21.1529 56.1334 20.1174 56.1066 19.0852 56.0798C18.6562 56.0798 18.4149 56.1585 18.2038 56.6193C17.874 57.3829 17.2845 58.0049 16.5397 58.3752C15.795 58.7454 14.9431 58.8399 14.1354 58.6418C13.3601 58.4483 12.6707 58.0035 12.1747 57.377C11.6788 56.7504 11.4043 55.9773 11.394 55.1783C11.3963 54.3763 11.6702 53.5988 12.1711 52.9726C12.672 52.3463 13.3703 51.9082 14.1521 51.7298C14.9589 51.5261 15.8119 51.6183 16.5565 51.9896C17.3011 52.361 17.8879 52.987 18.2105 53.754C18.3898 54.1545 18.5791 54.3019 19.0031 54.2935C20.147 54.269 21.292 54.269 22.4381 54.2935C22.8838 54.2935 23.0497 54.1645 23.1385 53.7037C24.1623 48.3819 28.2844 45.0742 33.6196 45.4144C36.7899 45.6155 39.2597 47.1838 41.056 49.8045C41.1498 49.9419 41.2353 50.0844 41.3911 50.3307C42.5373 49.4677 43.675 48.6383 44.7692 47.7552C44.8949 47.6547 44.8312 47.2525 44.7692 47.0012C43.6398 42.0732 45.8667 37.4635 50.3691 35.4528C50.7998 35.2601 51.2505 35.1177 51.7901 34.9065L47.8423 29.63C44.9016 31.2654 41.8603 31.6005 38.7704 30.2483C35.6806 28.896 33.8056 26.4681 32.9711 23.0582L28.8289 26.5937C29.8896 28.0247 30.7191 29.5495 30.8816 31.3056C30.9704 32.254 31.4563 32.7818 32.1584 33.2895C33.2442 34.0754 34.2898 34.9149 35.327 35.7628C35.7577 36.1147 36.076 36.2135 36.6407 35.9186C38.4554 34.9736 40.6622 35.8264 41.4665 37.6998C41.6563 38.1439 41.7538 38.6219 41.7531 39.1048C41.7524 39.5877 41.6536 40.0655 41.4625 40.509C41.2715 40.9525 40.9922 41.3526 40.6418 41.6848C40.2913 42.0171 39.877 42.2746 39.4239 42.4418C37.4936 43.1439 35.3823 42.1369 34.821 40.1579C34.6451 39.5396 34.7724 38.8409 34.7372 38.179C34.7255 37.9361 34.7372 37.5909 34.5864 37.4686C33.5559 36.614 32.4868 35.8047 31.4278 34.9836C31.2787 34.8663 31.1162 34.7641 30.9 34.6116C30.2817 37.4334 28.8222 39.61 26.4445 41.1616C21.0825 44.662 13.512 41.8101 11.7861 35.6321C10.1859 29.9031 13.6762 24.2562 19.5275 23.1872C20.1978 23.0649 20.3268 22.8085 20.3067 22.2187C20.2698 21.158 20.3302 20.094 20.2715 19.035C20.2492 18.8769 20.1927 18.7256 20.1058 18.5916C20.019 18.4576 19.904 18.3441 19.7688 18.2592C18.177 17.4465 17.3543 15.8429 17.7346 14.1673C17.9222 13.3846 18.3655 12.6868 18.9943 12.1845C19.6232 11.6822 20.4017 11.404 21.2065 11.3941C22.0227 11.3918 22.8149 11.67 23.4503 12.1822C24.0858 12.6944 24.5259 13.4094 24.6969 14.2075C24.8839 15.003 24.7849 15.839 24.4173 16.5688C24.0496 17.2986 23.4367 17.8757 22.6861 18.1988C22.2488 18.3949 22.108 18.606 22.1197 19.0618C22.1499 20.2062 22.1063 21.3524 22.1516 22.4952C22.16 22.708 22.4213 23.0615 22.6073 23.09C24.4284 23.3814 26.1394 24.151 27.5655 25.3203C29.2696 23.8608 30.9838 22.4382 32.6309 20.9435C32.9024 20.6955 32.9242 20.1325 32.9895 19.7052C33.3351 17.4518 34.4558 15.3895 36.1586 13.8737C37.8613 12.3578 40.0395 11.4833 42.3177 11.4008C44.6117 11.33 46.8595 12.0555 48.6791 13.4542C50.4987 14.8529 51.778 16.8385 52.2995 19.0735C52.4056 19.4469 52.6517 19.765 52.9865 19.9616C54.8213 20.9016 56.6913 21.7713 58.5412 22.6845C58.9148 22.8688 59.1913 22.9124 59.5935 22.6694C60.9708 21.8316 62.442 21.9539 63.6535 22.9023C64.2174 23.3468 64.6332 23.9518 64.8462 24.6374C65.0592 25.3231 65.0593 26.0572 64.8466 26.7429C64.4411 28.142 63.1961 29.1089 61.621 29.2563C59.5683 29.439 57.7084 27.5522 57.886 25.4593C57.9111 25.1544 57.9698 24.8544 58.0284 24.4439L52.4989 21.7629C52.2794 24.464 51.2036 26.6943 49.2632 28.5257C50.7462 30.5013 52.1889 32.4467 53.6735 34.3603C53.831 34.5647 54.2382 34.6552 54.5331 34.6636C56.6838 34.7084 58.7597 35.4616 60.4387 36.8065C62.1177 38.1513 63.306 40.0126 63.8194 42.1017C65.1482 47.5525 61.7165 53.0485 56.207 54.0941C52.0883 54.8767 48.7605 53.4222 46.2471 50.1011C46.0795 49.8732 45.9271 49.642 45.7159 49.337ZM48.1372 26.9976C50.3725 25.2717 51.3041 21.5618 50.2669 18.5943C49.6808 16.9394 48.5731 15.5195 47.1106 14.5483C45.648 13.5771 43.9096 13.107 42.1569 13.2088C38.9816 13.3764 35.9236 15.7223 35.0003 18.859C34.1072 21.8869 35.1025 25.5364 37.2758 27.0126C37.2976 26.7965 37.316 26.6122 37.3361 26.4278C37.5037 24.9935 38.4688 23.9948 39.9166 23.9479C41.7598 23.8876 43.603 23.8926 45.4461 23.9479C46.7716 23.9898 47.6714 24.8226 47.968 26.1078C48.03 26.3977 48.0786 26.6909 48.1372 26.9976ZM26.6892 38.6482C29.1725 36.5771 29.9566 32.6746 28.5675 29.5713C27.1433 26.3876 23.6663 24.3936 20.3653 24.8561C16.6069 25.3806 13.7299 28.1521 13.2607 31.7078C12.8585 34.7524 14.3549 37.8204 15.8445 38.5778C16.1176 36.2923 16.9689 35.5366 19.2695 35.5349C20.553 35.5349 21.8377 35.5349 23.1234 35.5349C25.4693 35.5315 26.3256 36.2604 26.6808 38.6482H26.6892ZM38.2694 61.0463C40.7477 58.9199 41.5486 55.2336 40.2701 52.1202C38.9916 49.0069 35.694 46.904 32.5438 47.157C28.7267 47.4654 25.7843 49.9034 25.0035 53.4122C24.3751 56.2155 25.5062 59.7594 27.4164 60.919C27.7515 58.6032 28.6262 57.8576 31.029 57.8576C32.2847 57.8576 33.5397 57.8576 34.7942 57.8576C37.0965 57.8593 38.0164 58.6854 38.2611 61.0463H38.2694ZM59.7007 50.2972C62.1622 48.3786 63.0151 44.4593 61.6997 41.3426C60.3341 38.1053 56.8605 36.0359 53.516 36.4665C49.5699 36.9692 46.8419 39.6737 46.289 43.6583C45.9539 46.0494 47.3162 49.4191 48.903 50.1832C49.0873 48.0367 50.0759 47.1336 52.2643 47.1235C53.6048 47.1235 54.9453 47.1235 56.2858 47.1235C58.5244 47.1302 59.4929 48.0099 59.6923 50.2972H59.7007ZM42.6445 25.6939C41.8368 25.6939 41.0292 25.6805 40.2215 25.6939C39.4809 25.709 39.0989 26.1028 39.0972 26.8501C39.1112 27.1561 39.1084 27.4627 39.0888 27.7684C39.0285 28.2794 39.2715 28.4939 39.7272 28.6715C41.3242 29.2833 43.0724 29.3806 44.7273 28.9497C46.2789 28.576 46.2672 28.5308 46.2354 26.959C46.2153 26.0123 45.9455 25.7207 44.9837 25.6906C44.2062 25.6755 43.4253 25.6939 42.6445 25.6939ZM21.2802 37.3261C20.4424 37.3261 19.6046 37.3261 18.7668 37.3261C18.0161 37.3261 17.6425 37.7249 17.6408 38.4739C17.6592 38.7803 17.6592 39.0875 17.6408 39.3939C17.5704 39.9183 17.8452 40.1328 18.2876 40.297C19.8504 40.9168 21.5699 41.023 23.1972 40.6003C24.8242 40.1713 24.8728 40.1462 24.8007 38.5007C24.7672 37.6629 24.479 37.3529 23.6278 37.3278C22.8419 37.3077 22.0611 37.3261 21.2802 37.3261ZM54.3169 48.9416C53.5076 48.9416 52.6999 48.9282 51.8923 48.9416C51.0545 48.9583 50.7596 49.2667 50.7277 50.1145C50.7395 50.3938 50.7362 50.6735 50.7177 50.9523C50.6406 51.4885 50.8852 51.7667 51.3661 51.9393C52.9427 52.5252 54.6589 52.6244 56.2925 52.2241C57.876 51.8304 57.9212 51.7214 57.8525 50.0827C57.8173 49.2633 57.5056 48.955 56.6578 48.9399C55.8769 48.9282 55.0961 48.9416 54.3169 48.9416ZM32.899 59.6522H31.2234C29.3434 59.6522 29.2814 59.736 29.2696 61.6412C29.2696 62.1975 29.4188 62.489 29.9684 62.6801C31.4608 63.2285 33.0791 63.3378 34.6316 62.9951C36.3341 62.6197 36.4464 62.4706 36.3911 60.7531C36.3659 60.0225 36.0006 59.679 35.312 59.6606C34.5177 59.6338 33.7067 59.6522 32.899 59.6522ZM38.2728 37.3412C37.7955 37.3271 37.332 37.5019 36.9828 37.8276C36.6336 38.1532 36.427 38.6034 36.4078 39.0805C36.4124 39.5438 36.5938 39.9878 36.9149 40.3217C37.2361 40.6556 37.6727 40.8542 38.1354 40.8768C38.6131 40.89 39.0768 40.7145 39.4262 40.3884C39.7755 40.0622 39.9824 39.6116 40.002 39.1341C39.9966 38.6709 39.8147 38.2271 39.4934 37.8933C39.1721 37.5595 38.7355 37.3609 38.2728 37.3379V37.3412ZM51.5689 63.2028C51.8054 63.2086 52.0407 63.1677 52.2614 63.0825C52.482 62.9973 52.6837 62.8694 52.8549 62.7061C53.0261 62.5429 53.1634 62.3475 53.259 62.1311C53.3546 61.9147 53.4067 61.6816 53.4121 61.4451C53.3975 60.9797 53.2082 60.5368 52.8819 60.2045C52.5555 59.8723 52.1161 59.6751 51.651 59.6522C50.7076 59.6254 49.8078 60.4984 49.8078 61.4401C49.8172 61.904 50.0059 62.3463 50.3342 62.6743C50.6624 63.0023 51.1049 63.1905 51.5689 63.1995V63.2028ZM61.4635 23.9362C60.9878 23.9335 60.5303 24.1191 60.1909 24.4525C59.8516 24.7859 59.6579 25.24 59.6521 25.7157C59.6669 26.178 59.8579 26.6172 60.1859 26.9434C60.5139 27.2695 60.9542 27.4579 61.4166 27.4701C61.6456 27.475 61.8733 27.4347 62.0867 27.3515C62.3001 27.2683 62.495 27.1439 62.6603 26.9853C62.8256 26.8267 62.958 26.6371 63.0499 26.4273C63.1418 26.2175 63.1915 25.9916 63.1961 25.7626C63.2113 25.5266 63.1777 25.29 63.0973 25.0675C63.0169 24.8451 62.8914 24.6416 62.7288 24.4699C62.5662 24.2982 62.3699 24.1618 62.1521 24.0694C61.9344 23.977 61.7 23.9305 61.4635 23.9328V23.9362ZM22.981 14.9414C22.9829 14.7123 22.9386 14.4851 22.8509 14.2734C22.7632 14.0617 22.6339 13.8698 22.4705 13.7091C22.3072 13.5484 22.1132 13.4222 21.9 13.338C21.6869 13.2538 21.4591 13.2133 21.23 13.2189C20.9943 13.2171 20.7606 13.2621 20.5425 13.3514C20.3244 13.4407 20.1262 13.5724 19.9594 13.7389C19.7926 13.9053 19.6605 14.1033 19.5709 14.3213C19.4812 14.5392 19.4357 14.7728 19.4371 15.0084C19.4607 15.4695 19.6565 15.9048 19.9857 16.2284C20.3149 16.5521 20.7535 16.7404 21.2149 16.7561C21.451 16.7553 21.6846 16.7073 21.9019 16.615C22.1192 16.5227 22.3159 16.3879 22.4804 16.2186C22.6449 16.0492 22.7739 15.8487 22.8599 15.6288C22.9459 15.4089 22.987 15.1741 22.981 14.9381V14.9414ZM13.2121 55.2302C13.222 55.6914 13.4107 56.1307 13.7383 56.4555C14.0659 56.7803 14.5069 56.9652 14.9682 56.9712C15.4444 56.9603 15.8976 56.7641 16.2315 56.4243C16.5654 56.0845 16.7536 55.6278 16.7561 55.1515C16.7429 54.6887 16.5492 54.2496 16.2163 53.9279C15.8834 53.6063 15.4377 53.4278 14.9749 53.4306C14.7385 53.4231 14.5031 53.4647 14.2836 53.5528C14.0642 53.6409 13.8653 53.7735 13.6997 53.9423C13.534 54.1111 13.4052 54.3124 13.3213 54.5335C13.2373 54.7546 13.2002 54.9907 13.2121 55.2269V55.2302Z" fill="white"/>
<path d="M46.2353 18.5407C46.2314 19.4845 45.8562 20.3889 45.1909 21.0583C44.5255 21.7278 43.6234 22.1085 42.6796 22.1182C41.7354 22.1111 40.8317 21.7332 40.1637 21.0657C39.4956 20.3983 39.1168 19.495 39.1089 18.5507C39.1152 17.6048 39.4903 16.6987 40.1543 16.025C40.8183 15.3513 41.7189 14.9632 42.6646 14.9431C44.5915 14.9431 46.232 16.5886 46.2353 18.5407ZM44.4374 18.5072C44.4316 18.0444 44.2431 17.6026 43.9128 17.2783C43.5826 16.9541 43.1375 16.7736 42.6746 16.7763C42.4382 16.7758 42.2041 16.8223 41.9858 16.913C41.7674 17.0037 41.5693 17.1369 41.4028 17.3047C41.2364 17.4726 41.1049 17.6718 41.016 17.8909C40.9271 18.11 40.8826 18.3445 40.8851 18.5809C40.8907 18.8171 40.9439 19.0496 41.0413 19.2648C41.1387 19.48 41.2784 19.6734 41.4521 19.8335C41.6258 19.9936 41.8299 20.1171 42.0523 20.1967C42.2747 20.2763 42.5108 20.3103 42.7467 20.2967C42.9762 20.2936 43.2028 20.2444 43.413 20.1521C43.6232 20.0598 43.8127 19.9263 43.9704 19.7594C44.128 19.5925 44.2506 19.3957 44.3308 19.1806C44.411 18.9655 44.4473 18.7365 44.4374 18.5072Z" fill="white"/>
<path d="M21.2132 26.6155C21.6818 26.6115 22.1466 26.7002 22.5808 26.8765C23.015 27.0528 23.4101 27.3131 23.7434 27.6427C24.0766 27.9722 24.3414 28.3643 24.5226 28.7965C24.7038 29.2287 24.7977 29.6925 24.799 30.1611C24.8003 30.6287 24.7092 31.0919 24.5307 31.5242C24.3523 31.9564 24.0901 32.349 23.7594 32.6795C23.4286 33.01 23.0357 33.2718 22.6033 33.4498C22.1709 33.6278 21.7076 33.7186 21.24 33.7168C20.7723 33.721 20.3084 33.6328 19.8749 33.4571C19.4414 33.2815 19.0469 33.022 18.714 32.6935C18.3811 32.3649 18.1164 31.9739 17.9351 31.5428C17.7538 31.1116 17.6595 30.6489 17.6575 30.1812C17.6562 29.7134 17.7472 29.25 17.9253 28.8174C18.1034 28.3849 18.365 27.9917 18.6954 27.6605C19.0257 27.3292 19.4181 27.0664 19.8501 26.8871C20.2822 26.7078 20.7454 26.6155 21.2132 26.6155ZM22.9793 30.1712C22.9793 29.1792 22.1415 28.328 21.188 28.3615C20.7249 28.3907 20.2892 28.5911 19.9656 28.9237C19.6419 29.2563 19.4535 29.6973 19.437 30.1611C19.4436 30.6388 19.6385 31.0945 19.9792 31.4293C20.32 31.764 20.779 31.9508 21.2567 31.949C21.7209 31.9415 22.163 31.75 22.486 31.4167C22.809 31.0833 22.9864 30.6353 22.9793 30.1712Z" fill="white"/>
<path d="M36.3893 52.4671C36.3969 52.9349 36.312 53.3996 36.1396 53.8345C35.9672 54.2694 35.7107 54.6661 35.3848 55.0017C35.0588 55.3373 34.6698 55.6053 34.2401 55.7903C33.8104 55.9753 33.3484 56.0737 32.8806 56.0798C32.4127 56.084 31.9485 55.9957 31.5148 55.82C31.0812 55.6443 30.6865 55.3846 30.3534 55.056C30.0204 54.7273 29.7555 54.336 29.5741 53.9047C29.3927 53.4734 29.2984 53.0104 29.2964 52.5425C29.2886 52.0744 29.3737 51.6094 29.5468 51.1744C29.7199 50.7393 29.9775 50.3429 30.3047 50.0081C30.6319 49.6732 31.0223 49.4066 31.4532 49.2235C31.8841 49.0404 32.347 48.9446 32.8152 48.9416C33.2816 48.9376 33.7442 49.0257 34.1764 49.2009C34.6087 49.3761 35.0021 49.6348 35.3342 49.9624C35.6662 50.2899 35.9303 50.6798 36.1114 51.1096C36.2925 51.5394 36.3869 52.0007 36.3893 52.4671ZM32.8521 50.7429C32.389 50.7387 31.9427 50.9159 31.6085 51.2366C31.2744 51.5572 31.079 51.9959 31.0642 52.4587C31.0588 52.6957 31.1008 52.9314 31.1877 53.1519C31.2746 53.3725 31.4047 53.5735 31.5703 53.7431C31.7358 53.9127 31.9336 54.0476 32.152 54.1398C32.3704 54.2321 32.605 54.2798 32.842 54.2801C33.3198 54.2754 33.7766 54.0836 34.1146 53.7459C34.4526 53.4082 34.6448 52.9516 34.65 52.4738C34.629 52.0099 34.4308 51.5718 34.0963 51.2498C33.7618 50.9277 33.3164 50.7463 32.8521 50.7429Z" fill="white"/>
<path d="M50.731 41.8066C50.7256 40.8615 51.0948 39.9528 51.7577 39.2793C52.4206 38.6057 53.3233 38.2221 54.2683 38.2124C55.2127 38.2101 56.1195 38.5821 56.7903 39.2469C57.4611 39.9118 57.8412 40.8152 57.8474 41.7597C57.8546 42.7044 57.4867 43.6133 56.8245 44.2871C56.1623 44.961 55.2599 45.3446 54.3152 45.3539C53.3702 45.3566 52.4625 44.9849 51.7908 44.3201C51.1192 43.6553 50.7381 42.7516 50.731 41.8066ZM56.0763 41.8066C56.0778 41.3441 55.8989 40.8992 55.5775 40.5666C55.2561 40.2339 54.8177 40.0398 54.3554 40.0254C54.119 40.012 53.8823 40.0468 53.6598 40.1278C53.4373 40.2088 53.2336 40.3343 53.0612 40.4965C52.8887 40.6588 52.7511 40.8544 52.6568 41.0716C52.5624 41.2888 52.5132 41.5229 52.5122 41.7597C52.5112 42.223 52.6884 42.669 53.0072 43.0053C53.326 43.3416 53.7619 43.5423 54.2247 43.566C54.7013 43.5712 55.1611 43.3906 55.5068 43.0624C55.8524 42.7343 56.0567 42.2844 56.0763 41.8082V41.8066Z" fill="white"/>
</svg>
