<svg width="76" height="77" viewBox="0 0 76 77" fill="none" xmlns="http://www.w3.org/2000/svg">
<path d="M0 15.4878C0 7.20353 6.71573 0.487793 15 0.487793H71.961C74.1701 0.487793 75.961 2.27865 75.961 4.48779V72.4488C75.961 74.6579 74.1701 76.4488 71.961 76.4488H0V15.4878Z" fill="#E3B505"/>
<path d="M64.4196 37.8535C64.4345 52.4753 52.5054 64.4027 37.8853 64.3862C23.2652 64.3696 11.4073 52.4902 11.3941 37.8933C11.3791 23.2715 23.3082 11.344 37.9284 11.3606C52.5485 11.3772 64.4063 23.2582 64.4196 37.8535ZM37.8787 60.2651C50.2154 60.2833 60.2488 50.293 60.2985 37.943C60.3482 25.593 50.3115 15.5016 37.9284 15.4817C25.5916 15.4635 15.5582 25.4538 15.5085 37.8038C15.4588 50.1538 25.5038 60.2435 37.8787 60.2651Z" fill="white"/>
<path d="M35.8639 31.8119C35.8639 29.7688 35.8406 27.7256 35.8738 25.6809C35.874 25.1782 36.0603 24.6934 36.397 24.32C36.7336 23.9467 37.1966 23.7113 37.6965 23.6592C38.1536 23.6189 38.6112 23.7317 38.9972 23.9797C39.3832 24.2278 39.6759 24.5971 39.8292 25.0296C39.9301 25.4307 39.9714 25.8444 39.9518 26.2575C39.9617 29.5965 39.9684 32.9371 39.9518 36.2777C39.9356 36.5054 39.9811 36.7333 40.0834 36.9375C40.1858 37.1416 40.3412 37.3143 40.5334 37.4376C42.7771 39.0947 45.0074 40.7683 47.2246 42.4452C47.9653 43.0053 48.3596 43.7278 48.1094 44.6723C47.8741 45.5621 47.2809 46.1487 46.3613 46.1885C45.8184 46.2084 45.2832 46.0564 44.8318 45.7543C42.1325 43.7907 39.4795 41.7658 36.805 39.7691C36.1273 39.262 35.8506 38.5942 35.8572 37.764C35.8688 35.7756 35.8572 33.7871 35.8572 31.7987L35.8639 31.8119Z" fill="white"/>
</svg>
