<svg width="76" height="76" viewBox="0 0 76 76" fill="none" xmlns="http://www.w3.org/2000/svg">
<path d="M0 15C0 6.71573 6.71573 0 15 0H72C74.2091 0 76 1.79086 76 4V72C76 74.2091 74.2091 76 72 76H0V15Z" fill="#E3B505"/>
<path d="M37.4421 52.1497C39.5968 52.1497 41.7515 52.1497 43.9061 52.1497C45.4293 52.1497 46.1255 51.4404 46.1387 49.9221C46.1487 48.8448 45.8172 47.6017 46.2398 46.7365C46.6476 45.8912 47.8525 45.4487 48.6614 44.7741C54.1591 40.1896 56.5956 34.3802 55.4934 27.2449C54.305 19.5527 48.2719 13.503 40.5763 12.1621C35.9768 11.3427 31.2378 12.3074 27.3246 14.8595C23.4113 17.4117 20.618 21.3595 19.5134 25.8991C18.581 29.7179 18.9007 33.7353 20.4254 37.3585C21.9501 40.9818 24.599 44.0191 27.9814 46.0222C28.4786 46.3188 28.7421 46.6338 28.6974 47.252C28.6377 48.0807 28.6791 48.9094 28.6841 49.7382C28.6841 51.5017 29.3222 52.1464 31.0626 52.1497C33.1891 52.1531 35.3156 52.1497 37.4421 52.1497ZM32.541 48.2912C32.541 47.5155 32.4929 46.8244 32.5509 46.1365C32.6753 44.678 32.0537 43.8161 30.7278 43.1531C24.7609 40.1614 21.6333 33.2084 23.1963 26.8504C24.9433 19.7466 31.7686 14.95 39.0117 15.7787C45.6299 16.5361 51.1111 21.9112 51.8271 28.541C52.4901 34.7316 49.4039 40.4747 43.8349 43.2791C42.7293 43.8343 42.2106 44.605 42.2851 45.8266C42.3349 46.6387 42.2951 47.4559 42.2951 48.2813L32.541 48.2912Z" fill="white"/>
<path d="M37.3757 54.7553C35.6635 54.7553 33.9514 54.7553 32.2376 54.7553C30.9961 54.7652 30.1591 55.5243 30.1442 56.6199C30.1293 57.7155 30.9862 58.5625 32.1862 58.5724C35.6381 58.5978 39.0906 58.5978 42.5436 58.5724C43.7452 58.5724 44.6055 57.7022 44.5988 56.6299C44.5922 55.5575 43.7535 54.7735 42.5138 54.7586C40.8049 54.7453 39.0928 54.7553 37.3757 54.7553Z" fill="white"/>
<path d="M37.3659 61.0718C36.6201 61.0718 35.8742 61.0536 35.1284 61.0718C34.0461 61.1066 33.282 61.8459 33.2323 62.8718C33.2143 63.1213 33.2469 63.3718 33.3281 63.6084C33.4094 63.845 33.5376 64.0627 33.7051 64.2484C33.8726 64.4342 34.0759 64.5842 34.3028 64.6894C34.5298 64.7946 34.7756 64.8529 35.0256 64.8608C36.5985 64.9171 38.1748 64.9171 39.746 64.8608C39.9886 64.8514 40.2269 64.7942 40.4473 64.6927C40.6677 64.5911 40.866 64.4471 41.0307 64.2688C41.1954 64.0905 41.3234 63.8815 41.4073 63.6538C41.4911 63.426 41.5293 63.1839 41.5195 62.9414C41.5046 61.884 40.7206 61.1182 39.6002 61.0801C38.856 61.0586 38.1101 61.0718 37.3659 61.0718Z" fill="white"/>
</svg>
