<svg width="77" height="77" viewBox="0 0 77 77" fill="none" xmlns="http://www.w3.org/2000/svg">
<path d="M0 30.1206C0 13.5521 13.4315 0.120605 30 0.120605H47C63.5685 0.120605 77 13.5521 77 30.1206V46.1206C77 62.6891 63.5685 76.1206 47 76.1206H30C13.4315 76.1206 0 62.6891 0 46.1206V30.1206Z" fill="#E3B505"/>
<path d="M17.8026 57.1185C17.2031 56.9041 16.7003 56.5669 16.5777 55.9C16.5185 55.5713 16.5321 55.2336 16.6175 54.9106C17.7872 50.6525 18.9721 46.3981 20.1722 42.1476C20.2741 41.8002 20.4596 41.4831 20.7123 41.224C28.5744 33.3137 36.4441 25.4102 44.3214 17.5134C45.47 16.3607 46.8054 15.624 48.4837 15.6824C49.5143 15.724 50.5138 16.0477 51.3731 16.6182C53.6914 18.1194 55.6377 20.008 57.0325 22.4027C57.4297 23.0842 57.5897 23.9047 57.8586 24.6617V25.8753C57.5523 27.6031 56.4858 28.8427 55.2519 29.9865C54.511 30.6737 53.8068 31.4007 53.0854 32.1098C51.6065 33.5671 50.1264 35.0236 48.6453 36.4793C47.7973 37.3127 46.9119 37.3013 46.0646 36.4541C43.4999 33.8888 40.9357 31.3233 38.372 28.7574C38.2878 28.6663 38.2086 28.5705 38.1348 28.4707L24.1192 42.3685L31.2505 49.4357C31.3024 49.3861 31.4178 49.2829 31.5275 49.1725C34.5958 46.0813 37.6661 42.9924 40.7383 39.9056C41.0005 39.6392 41.3236 39.4407 41.6798 39.3272C42.3792 39.1266 43.0867 39.4759 43.4335 40.0933C43.6064 40.3944 43.6762 40.7438 43.6322 41.0882C43.5882 41.4327 43.4329 41.7534 43.1898 42.0014C42.3109 42.9144 41.4109 43.8071 40.5181 44.7064C37.8949 47.3496 35.2744 49.9932 32.6566 52.637C32.2731 53.0345 31.7892 53.3208 31.2562 53.4655C27.0462 54.6483 22.8379 55.8397 18.6312 57.0397C18.5695 57.0624 18.5095 57.0896 18.4517 57.1209L17.8026 57.1185ZM44.7072 21.8901L51.7573 28.9443C52.4973 28.188 53.2698 27.4171 54.0204 26.6259C54.7027 25.907 54.7994 25.0882 54.3551 24.206C54.2564 23.9994 54.1435 23.8 54.0171 23.609C52.9013 21.9986 51.5019 20.6045 49.8874 19.4946C49.6271 19.3273 49.3509 19.186 49.0629 19.073C48.3513 18.7717 47.6502 18.8456 47.1027 19.3744C46.2604 20.1867 45.4846 21.0665 44.7072 21.8901ZM47.4098 33.174L49.2456 31.2464L42.2987 24.2816L40.4036 26.1621L47.4098 33.174ZM22.5628 45.5829C22.1712 46.9841 21.7683 48.4081 21.3841 49.8361C21.3763 49.9048 21.3832 49.9744 21.4044 50.0402C21.4255 50.106 21.4604 50.1666 21.5068 50.2179C22.1136 50.8507 22.7253 51.4754 23.3629 52.0789C23.4311 52.13 23.5095 52.1658 23.5927 52.1839C23.676 52.202 23.7622 52.2019 23.8454 52.1837C24.9892 51.8783 26.1264 51.5469 27.2652 51.2236L28.0418 51.001L22.5628 45.5829Z" fill="white"/>
<path d="M57.8585 55.8235C57.4783 56.7585 56.7773 57.0615 55.7863 57.0574C49.5063 57.0298 43.2263 57.0436 36.9463 57.042C36.7178 57.0526 36.4888 57.039 36.2631 57.0014C35.8839 56.9197 35.5475 56.7024 35.3171 56.3902C35.0868 56.0781 34.9783 55.6925 35.0122 55.3061C35.04 54.9191 35.2067 54.5553 35.4814 54.2814C35.7562 54.0075 36.1206 53.8421 36.5076 53.8155C36.6555 53.8033 36.8041 53.8098 36.9528 53.8098C43.2596 53.8098 49.5664 53.8195 55.8732 53.8C56.8593 53.8 57.5327 54.1469 57.8601 55.0949L57.8585 55.8235Z" fill="white"/>
</svg>
