<svg width="78" height="77" viewBox="0 0 78 77" fill="none" xmlns="http://www.w3.org/2000/svg">
<path d="M0 30.1206C0 13.5521 13.4315 0.120605 30 0.120605H48C64.5685 0.120605 78 13.5521 78 30.1206V46.1206C78 62.6891 64.5685 76.1206 48 76.1206H30C13.4315 76.1206 0 62.6891 0 46.1206V30.1206Z" fill="#E3B505"/>
<path d="M26.6008 62.1188H25.881C25.5273 61.8317 25.1449 61.5726 24.8228 61.2531C22.1629 58.6092 19.5108 55.9571 16.8665 53.297C16.5462 52.9757 16.287 52.5933 16 52.2387V51.5188C16.2879 51.1642 16.5471 50.7808 16.8674 50.4596C20.7223 46.5918 24.5822 42.7291 28.4473 38.8714C28.5705 38.7482 28.6884 38.6195 28.8729 38.4215C28.7336 38.3301 28.6004 38.2297 28.4742 38.1209C25.0231 34.6749 21.5738 31.2282 18.1263 27.781C17.204 26.8622 16.5426 25.8012 16.2168 24.5413C16.135 24.2245 16.0738 23.9032 16.0027 23.5838V22.1439C16.1899 21.4852 16.3068 20.7941 16.5741 20.1731C18.4637 15.7699 24.1371 14.753 27.5978 18.1933C31.0771 21.6538 34.5493 25.1235 38.0142 28.6026C38.1258 28.7151 38.2427 28.8204 38.4074 28.976C38.555 28.8033 38.663 28.6593 38.7889 28.5333C42.7248 24.5953 46.6618 20.6585 50.6 16.7229C51.4036 15.9184 52.1072 15.9193 52.918 16.7292C55.7374 19.5423 58.553 22.3566 61.3646 25.1721C62.2113 26.0189 62.2122 26.7092 61.3646 27.556C57.4384 31.4826 53.5092 35.4071 49.5769 39.3295C49.4428 39.4636 49.2422 39.5311 49.073 39.6292C49.0991 39.7012 49.1261 39.7732 49.1522 39.846C49.2906 39.9353 49.4223 40.0346 49.5463 40.143C51.8049 42.3982 54.0599 44.6558 56.3112 46.9157C56.53 47.1182 56.7076 47.3612 56.834 47.6312C58.5221 51.8157 60.1993 56.0042 61.8658 60.1966C62.1835 60.9939 61.9135 61.6365 61.146 62.0243C61.0978 62.0526 61.052 62.0848 61.0092 62.1206H60.2893C60.205 62.0664 60.1172 62.0177 60.0266 61.9748C55.9504 60.3433 51.8706 58.7198 47.7998 57.073C47.4021 56.9089 47.04 56.6694 46.7335 56.3675C44.4839 54.151 42.2614 51.912 40.028 49.6812C39.9056 49.5579 39.777 49.4409 39.5619 49.2312C39.4694 49.3852 39.365 49.5318 39.2496 49.6695C35.387 53.5331 31.5241 57.394 27.6608 61.2522C27.3369 61.5735 26.9554 61.8317 26.6008 62.1188ZM51.822 19.4739L19.4283 51.8562L26.2589 58.7001L29.1662 55.7924C29.177 55.8131 29.1662 55.7817 29.1491 55.7619C28.6992 55.3047 28.2412 54.8502 27.7877 54.3931C27.1443 53.7452 27.0957 52.9316 27.6644 52.3656C28.2331 51.7995 29.042 51.8427 29.689 52.4943C30.1686 52.9766 30.6338 53.4743 31.0846 53.944L34.1396 50.9068C33.2289 50.0015 32.3048 49.089 31.3888 48.1684C30.776 47.552 30.7517 46.7286 31.315 46.1724C31.8783 45.6163 32.6647 45.6514 33.2784 46.2516C34.1117 47.0687 34.9314 47.8993 35.7592 48.7237C35.86 48.8235 35.9689 48.9144 36.0157 48.9567L39.0346 45.9492C38.1519 45.0754 37.2349 44.1746 36.3279 43.2666C35.7142 42.6529 35.6774 41.8223 36.2262 41.2697C36.7751 40.7172 37.6048 40.746 38.2238 41.3597C39.0436 42.1696 39.8552 42.9885 40.6714 43.8021C40.773 43.9037 40.8801 44.0009 40.9296 44.0477L43.9593 41.0204C43.4671 40.5444 42.9236 40.053 42.4197 39.5248C41.6999 38.7662 42.0031 37.5828 42.9866 37.2903C43.5265 37.1301 43.9899 37.2903 44.3769 37.6836C44.8736 38.192 45.3667 38.705 45.8382 39.1909L48.8634 36.1627C48.7833 36.0727 48.6834 35.9674 48.579 35.863C47.7644 35.0471 46.9491 34.2324 46.1333 33.4189C45.7833 33.0697 45.5934 32.6621 45.6834 32.1653C45.7833 31.6407 46.0874 31.2762 46.6102 31.1115C47.1501 30.9414 47.6153 31.0962 48.004 31.4832C48.9362 32.4119 49.8595 33.3487 50.7557 34.2513L53.8151 31.2276C53.3103 30.7354 52.7929 30.2377 52.2854 29.7329C51.9192 29.3729 51.7626 28.9328 51.8949 28.4244C52.1576 27.4075 53.3607 27.0601 54.1354 27.7945C54.6753 28.3047 55.1819 28.8528 55.6651 29.3441L58.7137 26.2844L51.822 19.4739ZM27.1254 21.5851C26.5693 21.0181 26.0366 20.4296 25.4563 19.8924C24.7406 19.2316 23.8092 18.8532 22.8355 18.8277C21.8617 18.8022 20.9119 19.1313 20.1626 19.7538C18.6122 21.0379 18.192 23.2985 19.3203 24.9678C19.9034 25.8309 20.7088 26.5445 21.398 27.3076L27.1254 21.5851ZM36.3441 30.883L29.0969 23.6378L27.3252 25.3962L34.5688 32.6459C35.1483 32.0672 35.761 31.4607 36.3441 30.883ZM23.4676 29.1875L30.749 36.466L32.5073 34.6986L25.2295 27.4219L23.4676 29.1875ZM50.3985 55.2165L58.2269 58.3419L55.1001 50.5298L50.3985 55.2165ZM45.4881 43.5177C47.591 45.6253 49.7083 47.7473 51.8049 49.8485L53.5533 48.1L47.2302 41.7692L45.4881 43.5177ZM49.774 51.8679L43.4662 45.5686L41.6585 47.3765L47.9572 53.6759L49.774 51.8679Z" fill="white"/>
</svg>
