<svg width="77" height="77" viewBox="0 0 77 77" fill="none" xmlns="http://www.w3.org/2000/svg">
<path d="M0 30.1206C0 13.5521 13.4315 0.120605 30 0.120605H47C63.5685 0.120605 77 13.5521 77 30.1206V46.1206C77 62.6891 63.5685 76.1206 47 76.1206H30C13.4315 76.1206 0 62.6891 0 46.1206V30.1206Z" fill="#E3B505"/>
<path d="M37.9826 60.1195C37.0858 59.8796 36.4495 59.2839 35.8203 58.6573C34.2379 57.0849 32.6333 55.5355 31.0368 53.9769C30.9358 53.8771 30.829 53.7829 30.7151 53.6773C29.0623 56.1357 26.8049 57.2662 23.8409 56.5042C21.4438 55.8878 20.0035 54.2547 19.5586 51.8766C19.1689 49.7969 19.9342 47.3477 22.6107 45.7581C22.5027 45.6434 22.4029 45.5286 22.2949 45.4242C20.5357 43.7011 18.7749 41.9795 17.0125 40.2594C15.6613 38.9338 15.6637 37.3064 17.0125 35.9796C19.0198 34.0132 21.0283 32.0479 23.038 30.0838C23.4618 29.6672 23.9348 29.3413 24.5464 29.2804C25.5313 29.1748 26.3636 29.7395 26.7122 30.7357C27.2041 32.144 28.6726 32.9956 30.2609 32.7924C31.7118 32.6077 32.9396 31.3578 33.057 29.945C33.1885 28.3646 32.3785 27.1147 30.8677 26.5684C29.4591 26.0577 29.0107 24.6173 29.9016 23.4282C30.0361 23.2583 30.1833 23.0984 30.3419 22.9497C32.3382 20.994 34.3369 19.0394 36.338 17.086C37.6504 15.8051 39.3443 15.7971 40.6532 17.0722C42.4163 18.7907 44.1772 20.5123 45.9356 22.2369C46.0497 22.3634 46.1559 22.4964 46.2538 22.6352C47.9782 20.0655 50.2907 18.9522 53.2912 19.7751C55.6389 20.4189 57.0793 22.0521 57.4502 24.4084C57.8669 27.0481 56.7247 29.0497 54.3981 30.4913C54.5085 30.606 54.6118 30.7128 54.7186 30.8184C56.3127 32.3781 57.8986 33.947 59.5068 35.493C60.1478 36.1093 60.757 36.7314 61 37.6082V38.6412C60.7511 39.5318 60.1255 40.1596 59.474 40.7862C57.6603 42.5354 55.8678 44.3051 54.0659 46.0657C53.9043 46.2306 53.7309 46.384 53.5471 46.5248C52.345 47.4063 50.8612 46.9839 50.3283 45.6066C49.7496 44.1146 48.5393 43.3422 46.9369 43.4398C45.4708 43.5293 44.1713 44.7137 43.9588 46.153C43.7299 47.7092 44.6068 49.1623 46.0718 49.6546C47.0813 49.9932 47.6612 50.8195 47.5474 51.7802C47.4758 52.377 47.14 52.8384 46.7151 53.2527C44.8698 55.0512 43.0209 56.8473 41.1908 58.6607C40.5604 59.2851 39.9254 59.8819 39.0285 60.1206L37.9826 60.1195ZM24.4959 32.3276C24.3926 32.4229 24.3175 32.4906 24.2447 32.5572C22.4745 34.289 20.7102 36.0278 18.9259 37.746C18.6136 38.0478 18.6535 38.2234 18.9447 38.5034C20.891 40.3868 22.8185 42.2909 24.7589 44.18C24.9033 44.3223 25.05 44.4635 25.1827 44.6162C26.2392 45.8316 25.7978 47.3971 24.2529 47.9193C24.0852 47.9689 23.9222 48.0327 23.7658 48.1098C22.532 48.7858 21.8735 50.2744 22.1951 51.6447C22.3615 52.3407 22.7573 52.9639 23.3215 53.4183C23.8858 53.8727 24.5871 54.1331 25.3177 54.1594C26.0087 54.1828 26.6893 53.99 27.2605 53.6089C27.8316 53.2278 28.2634 52.6784 28.493 52.0407C29.0224 50.5625 30.6259 50.1355 31.8514 51.1489C31.9958 51.2637 32.1297 51.4026 32.2647 51.5346C34.2211 53.4474 36.1776 55.3622 38.134 57.2789C38.4122 57.5543 38.5872 57.5738 38.8771 57.2869C40.6461 55.5343 42.4351 53.799 44.2159 52.0579C44.2875 51.9879 44.3497 51.9099 44.419 51.8284C40.6626 49.6948 40.4971 45.1648 42.8612 42.719C44.0351 41.5024 45.4708 40.8517 47.1893 40.8482C49.5676 40.8482 51.292 41.9649 52.5246 43.9161C52.6291 43.8196 52.7042 43.7531 52.7758 43.6865C54.5472 41.9558 56.308 40.2193 58.0958 38.4977C58.401 38.2027 58.3834 38.0237 58.0876 37.7368C56.1296 35.8442 54.188 33.9344 52.2417 32.0304C52.1067 31.8984 51.9717 31.7675 51.8473 31.6264C50.7837 30.4132 51.2204 28.842 52.7617 28.3198C52.9154 28.2749 53.0653 28.2185 53.2102 28.1511C54.4592 27.5095 55.1506 25.9888 54.8301 24.6001C54.5049 23.193 53.2794 22.1899 51.7557 22.0866C51.0569 22.0507 50.3649 22.2366 49.783 22.6165C49.201 22.9965 48.7603 23.5501 48.5264 24.1949C47.997 25.6778 46.404 26.107 45.1714 25.0959C45.0153 24.9662 44.8709 24.8227 44.7254 24.6816L38.9464 19.0314C38.512 18.6067 38.5097 18.6067 38.0883 19.0187L32.8997 24.0916C32.7976 24.1915 32.699 24.2971 32.5898 24.4095C35.0632 25.9704 36.1995 28.1304 35.5245 30.9676C34.9728 33.2963 33.388 34.786 30.9992 35.2543C28.1854 35.8075 26.0384 34.6953 24.4959 32.3276Z" fill="white"/>
</svg>
