<svg width="77" height="77" viewBox="0 0 77 77" fill="none" xmlns="http://www.w3.org/2000/svg">
<path d="M0 30.1206C0 13.5521 13.4315 0.120605 30 0.120605H47C63.5685 0.120605 77 13.5521 77 30.1206V46.1206C77 62.6891 63.5685 76.1206 47 76.1206H30C13.4315 76.1206 0 62.6891 0 46.1206V30.1206Z" fill="#E3B505"/>
<path d="M58.9231 32.9191C58.4254 31.409 57.5264 30.7637 55.9264 30.7637H20.6386C20.492 30.7637 20.3442 30.7637 20.1955 30.7701C19.5913 30.7962 19.0126 31.021 18.5491 31.4096C18.0857 31.7981 17.7634 32.3287 17.6323 32.9191C17.5798 33.1686 17.554 33.423 17.5552 33.6779C17.5552 40.0993 17.5552 47.0709 17.5552 55.6285C17.5552 56.8796 18.2027 57.8888 19.2858 58.3287C19.4196 58.3822 19.5555 58.425 19.6871 58.4667L19.8637 58.5245L19.8969 58.5352H56.651L56.6788 58.5278C57.672 58.2613 58.3344 57.7572 58.7058 56.9866C58.7845 56.8153 58.8521 56.639 58.9081 56.459C58.9338 56.383 58.9595 56.3059 58.9873 56.231L59.0001 56.1957V33.0047L58.9477 32.9437L58.9231 32.9191ZM56.8639 33.8385C56.8639 41.0497 56.8639 48.2606 56.8639 55.4711C56.8639 56.2043 56.6606 56.4055 55.9157 56.4055H20.63C19.8669 56.4055 19.6796 56.2139 19.6796 55.4326V33.8823C19.6796 33.0711 19.852 32.8967 20.6482 32.8967H55.9339C56.6756 32.8977 56.8671 33.0914 56.8671 33.8417L56.8639 33.8385Z" fill="white"/>
<path d="M58.9766 19.3688C58.9702 19.3549 58.9637 19.3421 58.9563 19.3292C58.9488 19.3164 58.9423 19.3035 58.937 19.2907C58.4222 17.7217 57.5403 17.0796 55.8943 17.0796H34.1835C32.3973 17.0796 31.2393 18.2322 31.2328 20.0152C31.2328 20.5504 31.2329 21.0994 31.2393 21.6281C31.2478 22.648 31.2564 23.7022 31.22 24.7318C31.2002 25.1239 31.2605 25.5159 31.3972 25.8839C31.5339 26.2519 31.7442 26.5882 32.0152 26.8723C32.3067 27.1617 32.6529 27.3903 33.0336 27.5446C33.4143 27.699 33.8219 27.776 34.2327 27.7713H34.2638C37.6639 27.7402 41.1229 27.7456 44.4663 27.7509C45.7913 27.7509 47.1162 27.7509 48.4412 27.7509H50.5956C52.4235 27.7509 54.3136 27.7509 56.1726 27.7509C57.2086 27.7509 58.0358 27.2939 58.5656 26.4367C58.6902 26.2198 58.7921 25.9906 58.8696 25.7528C58.9059 25.6533 58.9423 25.5537 58.9819 25.4574L58.998 25.4178V19.4127L58.9766 19.3688ZM39.3377 19.2201H55.8986C56.6756 19.2201 56.8618 19.4074 56.8618 20.1736C56.8618 21.6955 56.8618 23.2174 56.8618 24.7393C56.8618 25.4306 56.6478 25.6415 55.9628 25.6415H34.2616C33.5735 25.6415 33.3626 25.4274 33.3626 24.7478C33.3626 23.2124 33.3626 21.6784 33.3626 20.1458C33.3626 19.4223 33.5585 19.2243 34.2734 19.2243L39.3377 19.2201Z" fill="white"/>
<path d="M22.8988 27.7692H22.9106C24.3143 27.7477 25.6532 27.1745 26.6377 26.1737C27.6221 25.1728 28.1731 23.8247 28.1714 22.4208C28.1697 21.0169 27.6155 19.67 26.6287 18.6715C25.6418 17.673 24.3015 17.1031 22.8977 17.085C22.1898 17.075 21.487 17.2058 20.8301 17.4697C20.1732 17.7337 19.5753 18.1256 19.0712 18.6227C18.567 19.1197 18.1667 19.712 17.8935 20.3651C17.6202 21.0182 17.4795 21.7191 17.4795 22.4271C17.4795 23.1351 17.6202 23.836 17.8935 24.4891C18.1667 25.1422 18.567 25.7345 19.0712 26.2315C19.5753 26.7286 20.1732 27.1205 20.8301 27.3845C21.487 27.6484 22.1898 27.7792 22.8977 27.7692H22.8988ZM19.6881 22.418C19.6934 21.5691 20.0338 20.7567 20.635 20.1574C21.2363 19.5581 22.0499 19.2205 22.8988 19.218C23.7528 19.2236 24.5699 19.5671 25.1716 20.1733C25.7732 20.7795 26.1104 21.5992 26.1095 22.4533C26.0683 23.2792 25.71 24.0572 25.1094 24.6255C24.5087 25.1938 23.712 25.5084 22.8851 25.5039C22.0583 25.4993 21.265 25.1759 20.6707 24.6011C20.0763 24.0262 19.7267 23.2442 19.6945 22.418H19.6881Z" fill="white"/>
<path d="M50.9722 35.8976C47.6545 35.8912 44.2811 35.8912 40.9591 35.8976C39.2274 35.8976 38.063 37.0674 38.0598 38.8012C38.0598 40.1661 38.0598 41.531 38.0598 42.8959V46.4181C38.0598 47.7787 38.0598 49.1393 38.0598 50.4999C38.0598 52.2123 39.2553 53.4088 40.9591 53.4099C42.5944 53.4099 44.2533 53.4099 45.9271 53.4099H50.9733C52.6792 53.4099 53.8715 52.2113 53.8726 50.4989C53.8726 46.5315 53.8726 42.5952 53.8726 38.8001C53.8715 37.0674 52.706 35.9008 50.9722 35.8976ZM51.746 46.3068C51.746 47.6624 51.746 49.018 51.746 50.3737C51.746 51.0672 51.532 51.278 50.8513 51.278C47.5956 51.278 44.3396 51.278 41.0832 51.278C40.3972 51.278 40.1885 51.064 40.1885 50.3737C40.1885 46.5572 40.1885 42.74 40.1885 38.9221C40.1885 38.235 40.3972 38.0253 41.0832 38.0253H50.8502C51.5362 38.0253 51.746 38.2393 51.746 38.9221C51.746 40.2778 51.746 41.6334 51.746 42.989V46.3068Z" fill="white"/>
<path d="M23.6522 39.7182C23.771 39.7289 23.8877 39.7289 24.0001 39.7289H32.2805C32.8499 39.7289 33.4267 39.7289 33.9929 39.7225C34.2293 39.7282 34.4605 39.6529 34.6482 39.509C34.8359 39.3651 34.9687 39.1614 35.0246 38.9316C35.1423 38.45 34.9336 37.9577 34.528 37.7608C34.2946 37.6545 34.0406 37.6008 33.7842 37.6034C31.0358 37.597 28.2425 37.597 25.5434 37.6034H23.8834C23.7866 37.5999 23.6895 37.6042 23.5934 37.6163C23.3352 37.6546 23.0999 37.7859 22.9317 37.9856C22.7636 38.1853 22.6743 38.4395 22.6805 38.7004C22.688 38.9602 22.7914 39.208 22.9709 39.396C23.1503 39.584 23.3931 39.6988 23.6522 39.7182Z" fill="white"/>
<path d="M23.6147 44.8426C23.7453 44.8551 23.8764 44.8598 24.0075 44.8565H32.5844C33.0285 44.8565 33.478 44.8565 33.9221 44.8565C34.499 44.8565 34.9132 44.5526 35.0299 44.0549C35.0694 43.8952 35.0723 43.7287 35.0382 43.5678C35.0041 43.4069 34.9339 43.2558 34.8329 43.1259C34.736 43.0039 34.6126 42.9054 34.4721 42.8379C34.3316 42.7705 34.1776 42.7357 34.0217 42.7364C30.811 42.7257 27.5382 42.7289 24.3767 42.7364H23.7346C23.5867 42.7403 23.4412 42.7738 23.3065 42.8348C23.094 42.9281 22.9182 43.0889 22.8064 43.2923C22.6946 43.4957 22.653 43.7302 22.6882 43.9597C22.7233 44.1891 22.8331 44.4005 23.0007 44.5611C23.1682 44.7217 23.384 44.8225 23.6147 44.8479V44.8426Z" fill="white"/>
<path d="M34.6287 48.081C34.3777 47.9364 34.0922 47.8624 33.8025 47.8669C31.2532 47.8573 28.6654 47.8573 26.1546 47.8584H24.3191C24.2624 47.8584 24.2046 47.8584 24.1468 47.8584C24.0034 47.8584 23.8546 47.8584 23.7048 47.8648C23.4281 47.8778 23.1672 47.9976 22.977 48.199C22.7868 48.4004 22.6821 48.6677 22.6849 48.9447C22.6884 49.2132 22.7944 49.4703 22.9812 49.6633C23.1681 49.8562 23.4215 49.9705 23.6898 49.9828C23.7755 49.9892 23.8589 49.9914 23.9413 49.9914H31.3516C32.2314 49.9914 33.1108 49.9914 33.9898 49.9914C34.2176 50.0017 34.4422 49.935 34.6275 49.802C34.8127 49.6689 34.9478 49.4774 35.0108 49.2582C35.1638 48.7713 35.0119 48.3239 34.6287 48.081Z" fill="white"/>
</svg>
