<svg width="78" height="77" viewBox="0 0 78 77" fill="none" xmlns="http://www.w3.org/2000/svg">
<path d="M0 30.1206C0 13.5521 13.4315 0.120605 30 0.120605H48C64.5685 0.120605 78 13.5521 78 30.1206V46.1206C78 62.6891 64.5685 76.1206 48 76.1206H30C13.4315 76.1206 0 62.6891 0 46.1206V30.1206Z" fill="#E3B505"/>
<path d="M17.6958 42.7488V22.268C17.7123 22.246 17.7377 22.2272 17.7444 22.203C18.3015 20.0351 19.5923 19.0366 21.8418 19.0366H53.2204C55.5946 19.0366 57.18 20.6187 57.1921 22.9907C57.1965 24.2852 57.1965 25.5789 57.1921 26.8719C57.1921 27.0771 57.2153 27.2128 57.4459 27.3132C59.1603 28.0513 59.9833 29.3741 59.9833 31.233C59.9833 38.3622 59.9491 45.4914 59.9999 52.6206C60.0175 55.1062 58.131 56.9233 55.7358 56.9001C49.4054 56.8406 43.075 56.8803 36.7434 56.8803H27.6968C26.4457 56.8803 25.4483 56.3684 24.7654 55.3291C24.034 54.2148 23.9766 53.0123 24.5977 51.8417C25.21 50.6855 26.2085 50.0578 27.5302 50.0136C28.2837 49.9883 29.0383 50.0136 29.8227 50.0136C29.9882 48.6831 30.1482 47.3901 30.3159 46.042H29.8073C27.0822 46.042 24.3572 46.0486 21.6322 46.042C19.8538 46.042 18.4217 45.0391 17.8933 43.4581C17.8139 43.2298 17.762 42.9849 17.6958 42.7488ZM54.5267 27.0429C54.5344 26.8664 54.5465 26.7318 54.5465 26.6016C54.5465 25.4322 54.5465 24.2623 54.5465 23.0922C54.5465 22.0617 54.1626 21.6833 53.1222 21.6833H21.7856C20.7253 21.6833 20.3403 22.065 20.3403 23.1175V41.9456C20.3403 42.9959 20.7397 43.4019 21.7745 43.4019H41.7433V42.8602C41.7433 39.0069 41.7433 35.1533 41.7433 31.2992C41.7357 30.9007 41.7728 30.5025 41.8536 30.1121C42.2861 28.2499 43.8395 27.0572 45.8253 27.0484C48.5504 27.0374 51.2754 27.0484 54.0004 27.0484L54.5267 27.0429ZM57.3355 41.9666C57.3355 38.3884 57.3355 34.8105 57.3355 31.233C57.3355 30.1872 56.8424 29.6885 55.7987 29.6885C52.5096 29.6885 49.2208 29.6885 45.9324 29.6885C44.8865 29.6885 44.3878 30.1883 44.3878 31.233C44.3878 38.3887 44.3878 45.5444 44.3878 52.7001C44.3878 53.7448 44.8876 54.2446 45.9324 54.2446H55.7998C56.8446 54.2446 57.3444 53.7493 57.3444 52.7067C57.34 49.1248 57.337 45.5448 57.3355 41.9666ZM32.4948 49.9805H41.7102V46.0662H32.9769C32.818 47.378 32.6559 48.6688 32.4948 49.9805ZM41.6937 52.6482H27.8104C27.7143 52.6447 27.618 52.6484 27.5224 52.6592C27.4098 52.6757 27.3019 52.7161 27.2062 52.7778C27.1104 52.8394 27.0289 52.9208 26.9673 53.0166C26.9056 53.1123 26.8652 53.2201 26.8486 53.3328C26.8321 53.4455 26.8399 53.5604 26.8715 53.6698C26.9819 54.0416 27.2952 54.2369 27.8137 54.2369H41.5613C41.6838 54.2369 41.8051 54.2259 41.9143 54.2214C41.8415 53.7007 41.7709 53.2009 41.6937 52.6482Z" fill="white"/>
<path d="M50.8651 52.3305C50.4869 52.3291 50.1176 52.2159 49.8038 52.0049C49.4899 51.7939 49.2456 51.4947 49.1017 51.145C48.9577 50.7953 48.9205 50.4108 48.9949 50.0401C49.0692 49.6693 49.2517 49.3288 49.5193 49.0617C49.787 48.7945 50.1277 48.6126 50.4986 48.5389C50.8695 48.4652 51.254 48.503 51.6034 48.6476C51.9529 48.7921 52.2516 49.037 52.4621 49.3512C52.6725 49.6654 52.7851 50.0349 52.7858 50.413C52.7826 50.9211 52.5791 51.4075 52.2195 51.7665C51.8599 52.1255 51.3732 52.3281 50.8651 52.3305Z" fill="white"/>
</svg>
