<svg width="77" height="77" viewBox="0 0 77 77" fill="none" xmlns="http://www.w3.org/2000/svg">
<path d="M0 30.1206C0 13.5521 13.4315 0.120605 30 0.120605H47C63.5685 0.120605 77 13.5521 77 30.1206V46.1206C77 62.6891 63.5685 76.1206 47 76.1206H30C13.4315 76.1206 0 62.6891 0 46.1206V30.1206Z" fill="#E3B505"/>
<path d="M59.9942 34.0497C59.8296 34.3296 59.7127 34.654 59.4928 34.8796C59.0244 35.362 58.4275 35.4913 57.7919 35.2583C57.1564 35.0253 56.804 34.5453 56.7217 33.876C56.7072 33.7118 56.7031 33.5468 56.7094 33.382C56.7094 30.0132 56.7094 26.6443 56.7094 23.2755C56.7094 21.629 55.812 20.4039 54.2856 19.9684C53.9424 19.8758 53.5881 19.8309 53.2327 19.835C43.7162 19.8274 34.2005 19.826 24.6856 19.8309C22.6274 19.8309 21.2172 21.2305 21.2155 23.2821C21.2095 29.4726 21.2095 35.6625 21.2155 41.8519C21.2155 43.9035 22.6258 45.3047 24.6823 45.3096C34.1988 45.3135 43.7148 45.3135 53.2302 45.3096C55.1986 45.3096 56.5562 44.0525 56.7061 42.1137C56.7826 41.1257 57.3021 40.5058 58.1525 40.3947C58.952 40.2893 59.6098 40.7429 59.9489 41.6296C59.9622 41.6535 59.9788 41.6754 59.9983 41.6946V42.7649C59.9664 42.8229 59.9416 42.8845 59.9242 42.9485C59.3941 46.2811 56.7201 48.5937 53.338 48.597C43.7535 48.6063 34.1689 48.6063 24.5844 48.597C20.8302 48.5928 17.9414 45.7114 17.9323 41.9622C17.9169 35.7053 17.9208 29.4468 17.9438 23.1866C17.9471 22.4481 18.0663 21.7147 18.297 21.0132C19.2273 18.2428 21.698 16.5485 24.7079 16.5485C33.4708 16.5485 42.2337 16.5485 50.9967 16.5485C51.8726 16.5485 52.751 16.5148 53.6254 16.5609C56.222 16.7 58.1435 17.9399 59.3142 20.2557C59.6435 20.9144 59.7769 21.6718 60 22.3839L59.9942 34.0497Z" fill="white"/>
<path d="M59.9944 55.5825C59.6593 56.5646 58.9604 56.9112 57.9436 56.9088C51.1264 56.8874 44.3085 56.8849 37.4902 56.9014C36.9312 56.9014 36.4199 56.7985 36.0363 56.3712C35.5966 55.8846 35.4674 55.31 35.6963 54.6925C35.9309 54.0594 36.4109 53.7046 37.0802 53.6223C37.2576 53.6074 37.4358 53.6033 37.6137 53.6099C44.3901 53.6099 51.1664 53.6198 57.9436 53.5984C58.9604 53.5984 59.6593 53.9425 59.9944 54.9247V55.5825Z" fill="white"/>
<path d="M28.5221 58.6237C27.7326 58.408 26.9645 58.1116 26.4977 57.411C26.2021 56.9673 25.8695 56.8825 25.3854 56.8882C23.4573 56.9113 21.5284 56.9014 19.5994 56.894C18.9458 56.894 18.437 56.6058 18.1241 56.023C17.9792 55.7719 17.9078 55.4852 17.9179 55.1955C17.9281 54.9059 18.0196 54.6249 18.1818 54.3846C18.5317 53.8232 19.066 53.6067 19.7147 53.6083C21.7671 53.6141 23.8195 53.6157 25.8711 53.6001C26.0628 53.5927 26.2438 53.5102 26.375 53.3704C27.3251 52.1667 28.7987 51.7444 30.2337 52.2919C31.5114 52.7801 32.4079 54.1961 32.2919 55.5356C32.1527 57.0916 31.1302 58.2466 29.6187 58.557C29.5543 58.5753 29.491 58.5976 29.4293 58.6237H28.5221Z" fill="white"/>
<path d="M33.2882 32.5702C33.2882 31.2529 33.2841 29.9415 33.2882 28.6267C33.2997 25.9362 35.8906 24.428 38.2204 25.76C40.4987 27.0658 42.7698 28.383 45.0339 29.7118C47.3571 31.0759 47.3571 34.0587 45.0339 35.4236C42.7698 36.753 40.4987 38.0702 38.2204 39.3754C35.8897 40.7115 33.2997 39.2008 33.2882 36.5095C33.2841 35.1989 33.2882 33.8841 33.2882 32.5702ZM36.5813 36.5334L43.4079 32.5685L36.5813 28.6086V36.5334Z" fill="white"/>
</svg>
